<?xml version="1.0" standalone="no"?>
<!DOCTYPE svg PUBLIC "-//W3C//DTD SVG 1.1//EN" "http://www.w3.org/Graphics/SVG/1.1/DTD/svg11.dtd" >
<svg xmlns="http://www.w3.org/2000/svg">
  <metadata>Created by iconfont</metadata>
  <defs>
  <font id="iconfont" horiz-adv-x="1024">
    <font-face
      font-family="iconfont"
      font-weight="400"
      font-stretch="normal"
      units-per-em="1024"
      ascent="896"
      descent="-128"
    />
      <missing-glyph />
      
      <glyph glyph-name="a-shijian11" unicode="&#62654;" d="M512-5.12a389.12 389.12 0 1 0 0 778.24 389.12 389.12 0 0 0 0-778.24z m134.22592 299.90912l-100.7616 77.08672V602.112a33.42336 33.42336 0 0 1-66.88768 0v-263.24992l127.05792-97.19808a33.42336 33.42336 0 0 1 40.59136 53.12512z"  horiz-adv-x="1024" />
      
      <glyph glyph-name="cuowu1" unicode="&#62655;" d="M512 773.12a389.12 389.12 0 1 1 0-778.24 389.12 389.12 0 0 1 0 778.24z m-27.19744-160.19456c0 22.69184 10.40384 34.03776 31.21152 34.03776s31.21152-11.34592 31.21152-34.03776v-314.9824c0-22.65088-10.40384-33.9968-31.21152-33.9968s-31.21152 11.34592-31.21152 33.9968V612.9664z m31.21152-488.0384c-22.69184 0-34.97984 11.34592-36.864 34.03776 1.88416 22.7328 14.17216 35.0208 36.864 36.90496 22.69184-1.88416 34.97984-14.17216 36.864-36.864-1.88416-22.7328-14.17216-34.07872-36.864-34.07872z"  horiz-adv-x="1024" />
      
      <glyph glyph-name="shuju" unicode="&#62656;" d="M491.52 129.88416c-133.40672 0-273.85856 18.2272-354.59072 66.7648-10.52672-15.1552-14.04928-27.32032-14.04928-39.44448 0-81.92 189.60384-121.36448 368.64-121.36448s368.64 39.44448 368.64 124.39552c0 12.12416-3.52256 24.28928-14.04928 39.44448-80.73216-48.5376-221.184-69.79584-354.59072-69.79584zM491.52 296.7552c-133.40672 0-273.85856 18.2272-354.59072 66.7648-10.52672-15.1552-14.04928-27.32032-14.04928-39.44448C122.88 239.12448 312.48384 199.68 491.52 199.68s368.64 39.44448 368.64 124.39552c0 12.12416-3.52256 24.28928-14.04928 39.44448-80.73216-45.50656-221.184-66.7648-354.59072-66.7648zM491.52 416.60416c-133.40672 0-273.85856 18.2272-354.59072 66.7648a53.248 53.248 0 0 1-14.04928-36.41344C122.88 362.00448 312.48384 322.56 491.52 322.56s368.64 39.44448 368.64 124.39552c0 12.12416-3.52256 24.28928-14.04928 39.44448-80.73216-48.5376-221.184-69.79584-354.59072-69.79584zM491.52 773.12C312.48384 773.12 122.88 727.6544 122.88 629.76 122.88 531.8656 312.48384 486.4 491.52 486.4s368.64 45.4656 368.64 143.36C860.16 727.6544 670.55616 773.12 491.52 773.12z"  horiz-adv-x="1024" />
      
      <glyph glyph-name="feishuaiguanli" unicode="&#62657;" d="M512-5.12A389.12 389.12 0 0 0 122.88 384 389.12 389.12 0 0 0 512 773.12a389.12 389.12 0 0 0 389.12-389.12 389.12 389.12 0 0 0-389.12-389.12z m171.95008 561.07008a24.33024 24.33024 0 0 1-34.4064 0l-309.49376-309.53472a24.33024 24.33024 0 0 1 34.4064-34.4064l309.49376 309.57568a24.33024 24.33024 0 0 1 0 34.4064z m-50.3808-366.51008a72.94976 72.94976 0 1 1 0 145.94048 72.94976 72.94976 0 0 1 0-145.94048z m0 48.66048a24.33024 24.33024 0 1 0 0 48.61952 24.33024 24.33024 0 0 0 0-48.66048z m-243.17952 194.56a72.94976 72.94976 0 1 1 0 145.89952 72.94976 72.94976 0 0 1 0-145.94048z m0 48.61952a24.33024 24.33024 0 1 0 0 48.66048 24.33024 24.33024 0 0 0 0-48.66048z"  horiz-adv-x="1024" />
      
      <glyph glyph-name="linux1" unicode="&#62536;" d="M0 896h1024v-1024H0zM523.6224 652.0576c-7.424-4.864-13.1072-11.9296-16.3072-20.1984-3.2512-10.7008-2.816-22.1952 1.28-32.5888 3.3536-10.9824 10.0864-20.5824 19.2768-27.4688 4.6592-3.2768 10.0608-5.376 15.7184-6.0928a28.672 28.672 0 0 1 16.5376 2.8672c6.0928 3.3536 10.9056 8.6272 13.7216 14.976a55.296 55.296 0 0 1 4.5312 20.1472c0.6144 8.8064-0.512 17.664-3.2768 26.0608a43.776 43.776 0 0 1-16.896 22.4768 32.9728 32.9728 0 0 1-13.312 4.992 28.4416 28.4416 0 0 1-14.1568-1.5616c-2.5344-1.024-4.9408-2.3552-7.168-3.9168M770.2528 298.88a365.6192 365.6192 0 0 1-20.5568 71.4752 205.056 205.056 0 0 1-25.5232 48.3072c-10.752 14.2848-24.2688 26.3168-34.816 40.7808-5.5296 7.5008-10.2144 15.872-15.9744 23.296a660.7872 660.7872 0 0 0-6.8864 14.5408c-6.912 15.104-13.2352 30.592-21.4784 44.9536a144.4864 144.4864 0 0 1-4.0192 6.656c-1.024 13.8496-2.5088 27.6736-3.2512 41.5232a390.5536 390.5536 0 0 1-6.9632 82.944c-3.584 13.0816-9.1648 25.5744-16.4864 37.0176a126.976 126.976 0 0 1-32.2048 34.7136 124.3648 124.3648 0 0 1-71.3472 22.8352 111.5904 111.5904 0 0 1-54.0672-12.4672 97.3824 97.3824 0 0 1-40.6528-42.3168 140.1344 140.1344 0 0 1-12.928-57.6c-0.64-19.4816 1.152-38.9632 1.8688-58.4704 0.768-20.2496 0.3584-40.576 2.048-60.8 0.512-6.5024 1.28-13.0048 1.2544-19.5584 0-3.2512-0.2048-6.528-0.256-9.7792l-0.256-0.7168a415.2064 415.2064 0 0 0-29.2096-43.1104c-7.424-9.4208-14.8992-18.7904-22.4768-28.0576-9.7536-11.008-18.048-23.2192-24.6528-36.352a259.584 259.584 0 0 1-10.752-35.1488l-0.256-1.024a273.2544 273.2544 0 0 0-15.5648-39.936c-0.5888-1.2032-1.1776-2.5088-1.7664-3.584-3.7376-7.7312-7.6544-15.3856-11.6736-22.9632l-4.6848-8.7808a142.2848 142.2848 0 0 1-7.808-16.2816c-1.3056-3.328-2.304-6.8096-2.8928-10.368a54.784 54.784 0 0 1 1.3824-22.4768c0.4864-1.8432 1.024-3.6608 1.664-5.4528 1.8688-5.376 4.1472-10.624 6.784-15.6672 1.2032-2.3296 2.5088-4.608 3.7376-6.912l1.1008-1.6384 3.84-6.4 0.1792-0.256c1.5104-2.4064 3.072-4.7616 4.6848-7.0912l0.2304-0.3072c1.6384-2.304 3.328-4.5568 4.992-6.8352a180.7104 180.7104 0 0 1 34.304-68.352c-2.4832-4.352-4.7616-8.7808-7.2704-13.1072a198.3488 198.3488 0 0 1-21.6832-41.0112c-2.3552-7.424-2.9184-15.3088-1.664-22.9888 1.3312-7.7056 5.3504-14.72 11.3408-19.7376 4.0448-3.1232 8.7296-5.2736 13.7216-6.3488 4.9664-1.0752 10.0608-1.536 15.1296-1.3312a246.3744 246.3744 0 0 1 56.6272 11.1616c11.0592 2.8928 22.1952 5.504 33.3824 7.808 11.6736 2.6624 23.552 4.3008 35.5072 4.8384 2.944 0 5.888 0 8.8064 0.2816 8.1152-0.896 16.2816-1.2032 24.448-0.896l2.9952 0.1792c2.1248-0.256 4.2496-0.384 6.3744-0.512 14.336-0.7936 28.672-2.2016 42.8544-4.352 12.5184-1.8944 24.9088-4.352 37.1968-7.3472 18.944-5.7344 38.4512-9.472 58.1888-11.1616 5.2224-0.256 10.4448 0.1792 15.5392 1.2288 5.12 1.024 9.9328 3.2512 14.08 6.4256a33.024 33.024 0 0 1 11.3664 19.7888c1.28 7.7056 0.6912 15.616-1.6896 23.04a190.8992 190.8992 0 0 1-22.0672 40.8832c-3.1488 5.2992-6.0928 10.7008-9.216 15.9744 13.44 15.0016 25.2416 31.3856 35.2 48.896 6.016-0.384 12.032 0.384 17.792 2.2272a74.5472 74.5472 0 0 1 37.4528 28.1088c2.816 3.8912 4.9152 8.2176 6.272 12.8 5.9392 9.3184 10.0096 19.6864 11.9808 30.5408a152.6784 152.6784 0 0 1-1.3312 54.272zM437.4528 543.9744a30.976 30.976 0 0 1-5.5808-11.776c-0.9984-4.2496-1.536-8.6016-1.6128-12.9792 0.256-8.7296-0.4608-17.4592-2.176-26.0352-3.0208-8.8576-7.5776-17.152-13.4656-24.448a148.3776 148.3776 0 0 1-23.552-42.24c-2.816-9.472-3.7376-19.3536-2.7136-29.1328a308.224 308.224 0 0 1-27.136-49.024 268.032 268.032 0 0 1-22.0672-81.7408 208.64 208.64 0 0 1 14.6944-101.9392c9.728-23.2448 24.6272-43.9552 43.52-60.6208 9.6512-8.3712 20.3264-15.4624 31.7952-21.12a142.5152 142.5152 0 0 1 127.6928 1.28 248.2944 248.2944 0 0 1 54.1952 42.8288 188.7744 188.7744 0 0 1 27.4944 31.232c13.3888 23.296 21.248 49.3824 22.9376 76.2112a248.6528 248.6528 0 0 1-14.6688 137.7792 152.0896 152.0896 0 0 1-27.4688 39.5008 216.3968 216.3968 0 0 1-17.4848 58.8032c-6.1952 13.4144-13.7216 26.24-19.456 39.936-2.3808 5.632-4.4032 11.3664-7.04 16.8192a50.4064 50.4064 0 0 1-10.24 15.0016 42.2144 42.2144 0 0 1-16 9.2928 69.6832 69.6832 0 0 1-18.3552 3.1488c-12.4672 0.6144-24.96-1.024-37.2992-0.512-9.984 0.4096-19.7632 2.1248-29.6448 1.536a45.696 45.696 0 0 1-14.4896-3.0208 29.184 29.184 0 0 1-11.904-8.6272m4.0192 107.9296a20.1984 20.1984 0 0 1-12.4928-5.5552 28.16 28.16 0 0 1-7.2704-11.7504c-2.3552-9.0368-2.8928-18.432-1.6128-27.648 0.1536-8.448 1.6384-16.8192 4.352-24.8064 1.536-3.9424 3.84-7.5264 6.7328-10.5984 2.944-3.0464 6.656-5.248 10.752-6.3232 3.84-0.9472 7.8848-0.768 11.6736 0.4096a25.344 25.344 0 0 1 9.984 6.0928c4.0704 4.1472 6.9888 9.2416 8.4992 14.848 1.5104 5.5808 2.176 11.3408 1.9712 17.1008 0 7.2192-1.1264 14.3872-3.3024 21.2736a47.9232 47.9232 0 0 1-10.88 18.4832 30.848 30.848 0 0 1-8.3456 6.2464 20.5568 20.5568 0 0 1-10.112 2.2272m82.2272 0c-7.424-4.864-13.1072-11.9296-16.3072-20.1984-3.2512-10.7008-2.816-22.1952 1.28-32.5888 3.3536-10.9824 10.0864-20.5824 19.2768-27.4688 4.6592-3.2768 10.0608-5.376 15.7184-6.0928a28.672 28.672 0 0 1 16.5376 2.8672c6.0928 3.3536 10.9056 8.6272 13.7216 14.976a55.296 55.296 0 0 1 4.5312 20.1472c0.6144 8.8064-0.512 17.664-3.2768 26.0608a43.776 43.776 0 0 1-16.896 22.4768 32.9728 32.9728 0 0 1-13.312 4.992 28.4416 28.4416 0 0 1-14.1568-1.5616c-2.5344-1.024-4.9408-2.3552-7.168-3.9168M540.3648 630.1952a16.7936 16.7936 0 0 1-7.7056-2.5088 20.224 20.224 0 0 1-5.8368-5.6832c-2.9952-4.608-4.608-9.984-4.6848-15.488-0.2048-4.096 0.3584-8.2176 1.664-12.1088a22.8864 22.8864 0 0 1 6.8096-9.984 19.328 19.328 0 0 1 23.424-1.1008 21.3248 21.3248 0 0 1 6.5536 7.4752c1.536 2.9696 2.56 6.2208 2.9696 9.5488a29.44 29.44 0 0 1-2.816 17.2288 24.1152 24.1152 0 0 1-12.8 11.6224 18.1504 18.1504 0 0 1-7.5264 1.1776M441.4464 652.0576a20.1984 20.1984 0 0 1-12.4928-5.5552 28.16 28.16 0 0 1-7.2704-11.7504c-2.3552-9.0368-2.8928-18.432-1.6128-27.648 0.1536-8.448 1.6384-16.8192 4.352-24.8064 1.536-3.9424 3.84-7.5264 6.7328-10.5984 2.944-3.0464 6.656-5.248 10.752-6.3232 3.84-0.9472 7.8848-0.768 11.6736 0.4096a25.344 25.344 0 0 1 9.984 6.0928c4.0704 4.1472 6.9888 9.2416 8.4992 14.848 1.5104 5.5808 2.176 11.3408 1.9712 17.1008 0 7.2192-1.1264 14.3872-3.3024 21.2736a47.9232 47.9232 0 0 1-10.88 18.4832 30.848 30.848 0 0 1-8.3456 6.2464 20.5568 20.5568 0 0 1-10.112 2.2272M430.2336 613.6064a35.072 35.072 0 0 1 0.9984-17.4848c1.3568-3.712 3.4816-7.1168 6.1952-9.984a20.48 20.48 0 0 1 6.0416-4.7104c2.304-1.152 4.9664-1.5104 7.5008-0.9472a11.0592 11.0592 0 0 1 5.7856 3.9168 19.072 19.072 0 0 1 3.1744 6.2976 35.1232 35.1232 0 0 1-0.3328 20.6592 26.9056 26.9056 0 0 1-7.8848 12.8512 15.616 15.616 0 0 1-6.4 3.328 11.1616 11.1616 0 0 1-7.2448-0.5632 12.288 12.288 0 0 1-5.5808-5.632 25.7024 25.7024 0 0 1-2.3296-7.7312M419.328 540.8c0.1536-0.768 0.4352-1.536 0.8448-2.2016a9.984 9.984 0 0 1 2.9184-2.944c1.1008-0.7936 2.2784-1.4336 3.4048-2.176 5.9904-4.0448 11.2384-9.1136 15.4624-14.976 5.248-8.1152 11.648-15.3856 19.0464-21.6064 5.632-3.84 12.2112-6.2208 19.0208-6.8352 7.9872-0.6144 16.0512 0.3328 23.68 2.7648 7.1424 2.048 13.9776 5.0432 20.3008 8.9088a212.1728 212.1728 0 0 0 35.2512 23.1168c2.8928 1.024 5.888 1.792 8.6528 3.1232a13.6448 13.6448 0 0 1 6.7584 6.0416c0.9728 2.7904 1.536 5.7088 1.6384 8.6528 0.4608 3.1232 1.4592 6.1696 1.9968 9.2672a15.616 15.616 0 0 1-0.7168 9.3184 12.032 12.032 0 0 1-5.4784 5.4528 18.7136 18.7136 0 0 1-7.4752 1.8688 111.6928 111.6928 0 0 1-15.616-1.536c-6.912-0.64-13.8752 0.256-20.8128 0-8.6016-0.256-17.152-2.2016-25.7536-2.5088-9.8304-0.4864-19.6352 1.024-29.4912 1.4336a60.928 60.928 0 0 1-12.7488-0.5888 29.4912 29.4912 0 0 1-11.8528-4.5824c-3.2512-2.56-6.3488-5.3504-9.2928-8.2688a23.6544 23.6544 0 0 0-5.12-3.5328 13.2352 13.2352 0 0 0-6.016-1.4336 9.728 9.728 0 0 1-3.2 0 4.3264 4.3264 0 0 1-1.664-1.024 9.728 9.728 0 0 1-1.2544-1.5872c-0.8704-1.28-1.6384-2.6624-2.2784-4.0704M440.9856 562.5856c-3.456-2.0992-6.8608-4.352-10.1632-6.7072a12.5184 12.5184 0 0 1-4.352-4.4288 10.3936 10.3936 0 0 1-0.8192-4.352 39.424 39.424 0 0 0 0-4.4288c-0.128-0.9984-0.384-1.9968-0.4352-3.0208-0.0256-0.512 0-1.024 0.1536-1.4848 0.128-0.512 0.3584-0.9472 0.7168-1.3312a3.84 3.84 0 0 1 1.6896-0.9728c0.64-0.2048 1.28-0.3072 1.92-0.4608a18.9184 18.9184 0 0 0 8.064-4.6848c2.3552-2.0992 4.4544-4.48 6.912-6.4768 6.8864-5.1456 15.2832-7.8848 23.8848-7.7312a107.776 107.776 0 0 1 25.2928 3.5072c6.5024 1.3568 12.9024 3.1488 19.1488 5.3248 9.6768 3.584 18.6112 8.9344 26.368 15.7184 3.3536 3.2256 6.9632 6.2208 10.752 8.9088 3.5328 2.2016 7.5264 3.6608 11.008 5.7344a7.04 7.04 0 0 1 0.896 0.64c0.2816 0.2304 0.5376 0.512 0.7168 0.8448a2.4832 2.4832 0 0 1 0 1.8688 5.0432 5.0432 0 0 1-0.768 1.5872 11.3152 11.3152 0 0 1-1.4848 1.4848 23.552 23.552 0 0 1-13.6448 4.736c-4.992 0.3584-9.8048 0-14.6432 0.9216a95.6928 95.6928 0 0 0-13.2352 3.84 92.928 92.928 0 0 1-47.8976 2.5856 98.8672 98.8672 0 0 1-29.952-11.6736M439.8848 574.3872a62.0544 62.0544 0 0 1-13.3632-12.2112c-2.304-2.6112-4.096-5.632-5.2992-8.8832a67.2512 67.2512 0 0 1-1.7408-8.0128 14.848 14.848 0 0 1-0.4352-3.0208c0-0.512 0.0768-0.9984 0.2304-1.4848 0.1536-0.512 0.4096-0.9472 0.768-1.3312a4.224 4.224 0 0 1 2.2528-1.1264c0.8192-0.1792 1.664-0.1792 2.4832-0.2816a23.552 23.552 0 0 0 10.4448-4.4544c3.1488-2.176 6.0416-4.6592 9.2672-6.7072 7.296-4.352 15.5648-6.7072 24.064-6.8608a107.52 107.52 0 0 1 25.088 2.5088c6.6048 1.2288 13.0816 3.072 19.3536 5.4528 9.472 4.0448 18.3296 9.3184 26.368 15.6928 3.7888 2.7392 7.3728 5.7344 10.7776 8.9344 1.152 1.0752 2.2528 2.2272 3.4816 3.2256a12.544 12.544 0 0 0 4.096 2.3808 15.1808 15.1808 0 0 0 7.168 0.128c1.7664-0.384 3.584-0.5888 5.376-0.6144 0.9216 0 1.8176 0.128 2.688 0.4096a5.4272 5.4272 0 0 1 2.2016 1.5872 5.248 5.248 0 0 1 1.152 3.328 6.7328 6.7328 0 0 1-0.9728 3.3792 11.6224 11.6224 0 0 1-5.504 4.4288 54.144 54.144 0 0 1-9.3952 2.7392 134.8096 134.8096 0 0 0-28.2368 10.3168c-4.48 2.2272-8.832 4.6848-13.2608 7.04a78.0032 78.0032 0 0 1-14.0544 6.2464 55.296 55.296 0 0 1-33.8432-1.536 72.448 72.448 0 0 1-31.2064-21.3248M496.256 583.424c0.5888-5.504 3.712-4.608 5.504-7.04 1.792-2.4832 2.8672-7.04 4.608-7.4752 1.792-0.4352 4.352 1.6896 4.608 6.4a16.8192 16.8192 0 0 1-5.0176 12.544c-2.7392 3.584-5.888 3.7888-8.6528 0.4864a8.832 8.832 0 0 1-1.0496-4.9152z m-29.7984 3.072c-2.3296 2.1248-6.144-9.344-5.0176-15.2576 0.3584-1.6128 1.408-3.6608 2.0992-2.6112 0.7168 1.0752 1.9456 7.6032 3.0976 9.856 0.8704 1.6128 0.7168 7.2448-0.1792 8.0384zM837.248 105.6768a44.288 44.288 0 0 0-7.3472-12.3648 80.0768 80.0768 0 0 0-25.8048-18.304c-16.4352-7.6032-32.4864-16.0512-48.0256-25.344-10.112-6.7072-19.6096-14.336-28.3136-22.8096a226.816 226.816 0 0 0-23.04-20.9152c-8.448-6.2464-18.2784-10.4192-28.672-12.1344a68.736 68.736 0 0 0-37.2992 5.632 44.7488 44.7488 0 0 0-20.736 16.256 48.768 48.768 0 0 0-5.8368 25.856c0.512 15.872 2.4064 31.6416 5.6832 47.1552 2.304 12.9536 4.5056 25.9584 5.888 39.0656 2.4064 23.8336 2.688 47.872 0.8192 71.7568a54.4 54.4 0 0 0 0 12.0064 15.2576 15.2576 0 0 0 15.5392 14.2336c3.712 0.0768 7.424-0.256 11.0848-0.9216 8.6528-1.024 17.28-2.4832 25.7792-4.4544 5.3248-1.408 10.5216-3.2768 15.8464-4.736 8.8576-2.56 18.1248-3.4048 27.2896-2.4832a211.2 211.2 0 0 0 29.2864 4.5824c4.0704-0.128 8.0896-0.8448 11.9552-2.0992a25.4976 25.4976 0 0 0 10.752-5.9904c2.176-2.304 3.8656-5.0176 4.992-7.9872 1.664-4.4032 2.688-9.0112 3.0464-13.696 0.128-4.1728 0.512-8.3456 1.0752-12.4928 1.4848-6.7072 4.6592-12.928 9.1904-18.0736 4.5312-5.0432 9.472-9.7024 14.848-13.9008 5.1968-4.3776 10.4448-8.7296 16.0768-12.4672 2.6368-1.792 5.376-3.5072 7.8592-5.4784 2.56-1.92 4.736-4.352 6.3744-7.0912a17.6384 17.6384 0 0 0 1.792-12.4928M837.248 105.6768a44.288 44.288 0 0 0-7.3472-12.3648 80.0768 80.0768 0 0 0-25.8048-18.304c-16.4352-7.6032-32.4864-16.0512-48.0256-25.344-10.112-6.7072-19.6096-14.336-28.3136-22.8096a226.816 226.816 0 0 0-23.04-20.9152c-8.448-6.2464-18.2784-10.4192-28.672-12.1344a68.736 68.736 0 0 0-37.2992 5.632 44.7488 44.7488 0 0 0-20.736 16.256 48.768 48.768 0 0 0-5.8368 25.856c0.512 15.872 2.4064 31.6416 5.6832 47.1552 2.304 12.9536 4.5056 25.9584 5.888 39.0656 2.4064 23.8336 2.688 47.872 0.8192 71.7568a54.4 54.4 0 0 0 0 12.0064 15.2576 15.2576 0 0 0 15.5392 14.2336c3.712 0.0768 7.424-0.256 11.0848-0.9216 8.6528-1.024 17.28-2.4832 25.7792-4.4544 5.3248-1.408 10.5216-3.2768 15.8464-4.736 8.8576-2.56 18.1248-3.4048 27.2896-2.4832a211.2 211.2 0 0 0 29.2864 4.5824c4.0704-0.128 8.0896-0.8448 11.9552-2.0992a25.4976 25.4976 0 0 0 10.752-5.9904c2.176-2.304 3.8656-5.0176 4.992-7.9872 1.664-4.4032 2.688-9.0112 3.0464-13.696 0.128-4.1728 0.512-8.3456 1.0752-12.4928 1.4848-6.7072 4.6592-12.928 9.1904-18.0736 4.5312-5.0432 9.472-9.7024 14.848-13.9008 5.1968-4.3776 10.4448-8.7296 16.0768-12.4672 2.6368-1.792 5.376-3.5072 7.8592-5.4784 2.56-1.92 4.736-4.352 6.3744-7.0912a17.6384 17.6384 0 0 0 1.792-12.4928m-543.6672 132.4544a23.7056 23.7056 0 0 0 13.312 1.2288c4.48-0.8704 8.7296-2.6624 12.4928-5.2736 7.1936-5.4784 13.3888-12.16 18.304-19.7632 12.1856-16.768 23.9104-33.92 34.56-51.712 8.6016-14.4128 16.512-29.3376 26.496-42.9056 6.4768-8.832 13.824-17.0496 20.3776-25.856 6.8096-8.6528 11.9808-18.4832 15.232-29.0048a58.112 58.112 0 0 0-4.2496-41.6256c-4.608-8.96-11.648-16.4864-20.2752-21.76a52.224 52.224 0 0 0-28.7232-7.4752 140.8256 140.8256 0 0 0-45.5424 14.3616c-30.208 12.032-63.0016 15.7952-94.1312 25.1648-9.5744 2.8928-18.9952 6.2976-28.5952 8.96a84.5824 84.5824 0 0 0-12.672 4.0448 21.9136 21.9136 0 0 0-9.984 8.3968 18.9952 18.9952 0 0 0-2.5088 9.984c0.128 3.4048 0.8192 6.784 2.048 9.984 2.304 6.4512 6.0928 12.288 8.6528 18.6624a78.336 78.336 0 0 1 4.352 33.0752c-0.5632 11.1872-2.5088 22.272-3.1488 33.4592a57.9072 57.9072 0 0 0 0.4608 14.976 22.4768 22.4768 0 0 0 18.9184 19.2512c4.5312 0.8192 9.1648 1.1008 13.7728 0.8704 4.608-0.256 9.216-0.256 13.824 0 4.6336 0.256 9.1392 1.536 13.2352 3.6864 3.7632 2.304 6.9888 5.376 9.472 8.96a108.8 108.8 0 0 1 6.8096 11.264c2.048 3.8656 4.4288 7.552 7.168 11.008 2.7136 3.456 6.2464 6.1952 10.2656 7.9872M293.6832 238.4384a23.7056 23.7056 0 0 0 13.312 1.2288c4.48-0.8704 8.7296-2.6624 12.4928-5.2736 7.1936-5.4784 13.3888-12.16 18.304-19.7632 12.1856-16.768 23.9104-33.92 34.56-51.712 8.6016-14.4128 16.512-29.3376 26.496-42.9056 6.4768-8.832 13.824-17.0496 20.3776-25.856 6.8096-8.6528 11.9808-18.4832 15.232-29.0048a58.112 58.112 0 0 0-4.2496-41.6256c-4.608-8.96-11.648-16.4864-20.2752-21.76a52.224 52.224 0 0 0-28.7232-7.4752 140.8256 140.8256 0 0 0-45.5424 14.3616c-30.208 12.032-63.0016 15.8208-94.1312 25.1648-9.5744 2.8928-18.9952 6.2976-28.5952 8.96a84.5824 84.5824 0 0 0-12.672 4.0448 21.9136 21.9136 0 0 0-9.984 8.3968 18.9952 18.9952 0 0 0-2.5088 9.984c0.128 3.4048 0.8192 6.784 2.048 9.984 2.304 6.4512 6.0928 12.288 8.6528 18.6624a78.336 78.336 0 0 1 4.352 33.0752c-0.5632 11.1872-2.5088 22.272-3.1488 33.4592a57.9072 57.9072 0 0 0 0.4608 14.976 22.4768 22.4768 0 0 0 18.9184 19.2512c4.5312 0.8192 9.1648 1.1008 13.7728 0.8704 4.608-0.256 9.216-0.256 13.824 0 4.6336 0.256 9.1392 1.536 13.2352 3.6864 3.7632 2.304 6.9888 5.376 9.472 8.96a108.8 108.8 0 0 1 6.8096 11.264c2.048 3.8656 4.4288 7.552 7.168 11.008 2.7136 3.456 6.2464 6.1952 10.2656 7.9872M300.288 231.1168a20.4288 20.4288 0 0 0 12.032 0.7936c3.9936-0.9728 7.7312-2.7904 10.9312-5.3504 6.1696-5.376 11.3408-11.776 15.2576-18.944 10.368-16.7936 20.48-33.7152 29.9776-51.0464 6.8352-13.2352 14.5408-26.0352 23.04-38.272 5.9136-7.936 12.6464-15.2064 18.688-23.04 6.272-7.68 11.0592-16.4608 14.0544-25.9072 3.4304-12.4416 2.048-25.6768-3.8912-37.12a49.4592 49.4592 0 0 0-18.7392-19.584c-7.9616-4.6336-17.1008-6.912-26.2912-6.5024a147.1488 147.1488 0 0 0-41.7024 12.928c-26.368 9.5488-54.9376 10.8288-81.92 18.304-9.6768 2.6112-19.1232 6.144-28.8768 8.576a87.9104 87.9104 0 0 0-12.8 3.712 20.736 20.736 0 0 0-10.1632 8.2432 18.048 18.048 0 0 0-2.176 9.5232c0.1536 3.328 0.8704 6.5792 2.1248 9.6512 2.3296 6.1696 6.0416 11.776 8.3968 17.92 3.2512 9.4976 4.4032 19.584 3.3792 29.568-0.6656 9.984-2.5088 19.84-2.9952 29.824a50.944 50.944 0 0 0 0.5888 13.312 22.8864 22.8864 0 0 0 6.016 11.776 23.3216 23.3216 0 0 0 12.9792 6.016 60.16 60.16 0 0 0 14.4896 0c4.8128-0.5632 9.6512-0.7936 14.5152-0.6656 4.864 0.1536 9.6 1.5872 13.7216 4.1984 3.584 2.5856 6.5024 6.016 8.4736 9.984 1.9712 3.9168 3.6864 7.936 5.1456 12.032 1.4848 4.1472 3.4304 8.0896 5.8112 11.776a22.6816 22.6816 0 0 0 9.984 8.448"  horiz-adv-x="1024" />
      
      <glyph glyph-name="gengduo" unicode="&#62533;" d="M512 742.4a358.4 358.4 0 1 1 0-716.8 358.4 358.4 0 0 1 0 716.8z m0-51.2a307.2 307.2 0 1 0 0-614.4 307.2 307.2 0 0 0 0 614.4z m153.6-262.4a44.8 44.8 0 1 1 0-89.6 44.8 44.8 0 0 1 0 89.6z m-153.6 0a44.8 44.8 0 1 1 0-89.6 44.8 44.8 0 0 1 0 89.6z m-153.6 0a44.8 44.8 0 1 1 0-89.6 44.8 44.8 0 0 1 0 89.6z"  horiz-adv-x="1024" />
      
      <glyph glyph-name="jianshao" unicode="&#62534;" d="M510.8224 742.4a358.4 358.4 0 1 1 0-716.8 358.4 358.4 0 0 1 0 716.8z m213.3504-401.0496H297.472A42.8032 42.8032 0 0 0 254.8224 384c0 23.4496 19.2 42.6496 42.6496 42.6496h426.7008c23.4496 0 42.6496-19.2 42.6496-42.6496a42.8032 42.8032 0 0 0-42.6496-42.6496z"  horiz-adv-x="1024" />
      
      <glyph glyph-name="a-zengjiabeifen5" unicode="&#62535;" d="M510.8224 742.4a358.4 358.4 0 1 1 0-716.8 358.4 358.4 0 0 1 0 716.8z m213.3504-401.0496H553.472v-170.7008a42.8032 42.8032 0 0 0-42.6496-42.6496 42.8032 42.8032 0 0 0-42.6496 42.6496v170.7008H297.472A42.8032 42.8032 0 0 0 254.8224 384c0 23.4496 19.2 42.6496 42.6496 42.6496h170.7008V597.3504c0 23.4496 19.2 42.6496 42.6496 42.6496 23.4496 0 42.6496-19.2 42.6496-42.6496v-170.7008h170.7008c23.4496 0 42.6496-19.2 42.6496-42.6496a42.8032 42.8032 0 0 0-42.6496-42.6496z"  horiz-adv-x="1024" />
      
      <glyph glyph-name="zanting1" unicode="&#62531;" d="M512 630.7102273400001a246.71022734 246.71022734 0 1 1 0-493.42045468 246.71022734 246.71022734 0 0 1 0 493.42045468z m-22.0934536-316.67282846c0-14.72896907-11.04672615-22.0934536-22.09345231-22.09345361s-22.0934536 11.04672615-22.09345359 22.09345361v139.92520224c0 14.72896907 11.04672615 22.0934536 22.09345359 22.09345361s22.0934536-11.04672615 22.09345231-22.09345361v-139.92520224z m103.10278218 0c0-14.72896907-11.04672615-22.0934536-22.0934536-22.09345361s-22.0934536 7.36448454-22.0934536 22.09345361v139.92520224c0 14.72896907 11.04672615 22.0934536 22.0934536 22.09345361s22.0934536-11.04672615 22.0934536-22.09345361v-139.92520224zM917.04664157 899.51390699H106.95335843C44.35524183 899.51390699-3.51390699 851.64475817-3.51390699 789.04664157v-810.09328314c0-62.59811789 47.86914882-110.46726541 110.46726542-110.46726542h810.09328314c62.59811789 0 110.46726541 47.86914882 110.46726542 110.46726542V789.04664157c0 62.59811789-47.86914882 110.46726541-110.46726542 110.46726542zM512 89.42062383999996c-162.01865714 0-294.57937616 132.56071902-294.57937616 294.57937616s132.56071902 294.57937616 294.57937616 294.57937616 294.57937616-132.56071902 294.57937616-294.57937616-132.56071902-294.57937616-294.57937616-294.57937616z"  horiz-adv-x="1024" />
      
      <glyph glyph-name="kaishi1" unicode="&#62532;" d="M512 638.07471187a246.71022734 246.71022734 0 1 1 0-493.42045468 246.71022734 246.71022734 0 0 1 0 493.42045468z m110.46726541-254.07471187c0-3.68224161 0-3.68224161-3.68224161-3.68224161l-11.04672616-11.04672746-132.56071902-84.69157018c-11.04672615-7.36448454-25.77569522-3.68224161-33.14017974 11.04672615v3.6822429c0 3.68224161-3.68224161 7.36448454-3.68224292 11.04672616v162.01865714c0 7.36448454 0 11.04672615 3.68224292 18.4112107s11.04672615 11.04672615 18.41121069 14.72896906c3.68224161 0 7.36448454 0 11.04672615-3.68224292l132.56071901-81.00932856c3.68224161-3.68224161 11.04672615-7.36448454 11.04672616-11.04672616 7.36448454-11.04672615 7.36448454-18.41121069 7.36448452-25.77569522zM917.04664157 906.87839151H106.95335843c-62.59811789 0-110.46726541-47.86914882-110.46726542-110.46726541v-810.09328313c0-62.59811789 47.86914882-110.46726541 110.46726542-110.46726542h810.09328314c62.59811789 0 110.46726541 47.86914882 110.46726542 110.46726542v810.09328313c0 62.59811789-47.86914882 110.46726541-110.46726542 110.46726541z m-405.04664157-810.09328314c-62.59811789 0-117.83174994 18.41121069-165.70089876 51.55139174-14.72896907 11.04672615-29.45793813 22.0934536-44.18690592 36.82242137s-25.77569522 29.45793813-36.82242266 44.1869059c-29.45793813 44.18690591-47.86914882 99.42053925-47.86914882 162.01865716 0 29.45793813 3.68224161 58.91587498 14.72896907 88.3738131 7.36448454 18.41121069 14.72896907 36.82242138 22.0934536 51.55139043 3.68224161 7.36448454 11.04672615 14.72896907 14.72896907 25.77569523 11.04672615 14.72896907 22.0934536 29.45793813 36.82242137 44.18690591s29.45793813 25.77569522 44.18690591 36.82242266c7.36448454 3.68224161 14.72896907 11.04672615 25.77569651 14.72896777 18.41121069 7.36448454 33.14017975 18.41121069 51.55139043 22.0934536 29.45793813 7.36448454 58.91587498 14.72896907 88.37381181 14.72896907s58.91587498-3.68224161 88.37381312-14.72896907c18.41121069-7.36448454 36.82242138-14.72896907 51.55139043-22.0934536 7.36448454-3.68224161 14.72896907-11.04672615 25.77569522-14.72896777 14.72896907-11.04672615 29.45793813-22.0934536 44.1869072-36.82242266s25.77569522-29.45793813 36.82242138-44.18690591c3.68224161-7.36448454 11.04672615-14.72896907 14.72896907-25.77569523 7.36448454-18.41121069 18.41121069-33.14017975 22.0934536-51.55139043 7.36448454-29.45793813 14.72896907-58.91587498 14.72896776-88.3738131-7.36448454-162.01865714-139.92520355-294.57937616-301.94385939-294.57937617z"  horiz-adv-x="1024" />
      
      <glyph glyph-name="minus-circle-outline" unicode="&#59967;" d="M512 42.666667c-188.16 0-341.333333 153.173333-341.333333 341.333333s153.173333 341.333333 341.333333 341.333333 341.333333-153.173333 341.333333-341.333333-153.173333-341.333333-341.333333-341.333333m0 768A426.666667 426.666667 0 0 1 85.333333 384a426.666667 426.666667 0 0 1 426.666667-426.666667 426.666667 426.666667 0 0 1 426.666667 426.666667A426.666667 426.666667 0 0 1 512 810.666667M298.666667 341.333333h426.666666v85.333334H298.666667"  horiz-adv-x="1024" />
      
      <glyph glyph-name="plus-circle-outline" unicode="&#60157;" d="M512 42.666667c-188.16 0-341.333333 153.173333-341.333333 341.333333s153.173333 341.333333 341.333333 341.333333 341.333333-153.173333 341.333333-341.333333-153.173333-341.333333-341.333333-341.333333m0 768A426.666667 426.666667 0 0 1 85.333333 384a426.666667 426.666667 0 0 1 426.666667-426.666667 426.666667 426.666667 0 0 1 426.666667 426.666667A426.666667 426.666667 0 0 1 512 810.666667m42.666667-213.333334h-85.333334v-170.666666H298.666667v-85.333334h170.666666v-170.666666h85.333334v170.666666h170.666666v85.333334h-170.666666V597.333333z"  horiz-adv-x="1024" />
      
      <glyph glyph-name="yianzhuang" unicode="&#62523;" d="M828.104348 597.704348l-48.973913 57.878261c-8.904348 8.904348-22.26087 17.808696-35.617392 17.808695H325.008696c-13.356522 0-31.165217-8.904348-40.069566-17.808695l-44.521739-57.878261c-13.356522-13.356522-17.808696-31.165217-17.808695-44.521739v-431.86087c0-40.069565 31.165217-71.234783 71.234782-71.234782h485.286957c40.069565 0 71.234783 31.165217 71.234782 71.234782V553.182609c-4.452174 17.808696-8.904348 31.165217-22.260869 44.521739z m-111.304348-351.721739l-169.182609-133.565218c-4.452174-4.452174-8.904348-4.452174-13.356521-4.452174s-8.904348 0-13.356522 4.452174l-169.182609 133.565218c-8.904348 4.452174-8.904348 17.808696-8.904348 26.713043 4.452174 8.904348 13.356522 13.356522 22.26087 13.356522H489.73913V406.26087c0 26.713043 17.808696 44.521739 44.52174 44.521739s44.521739-17.808696 44.521739-44.521739v-120.208696h124.660869c8.904348 0 17.808696-4.452174 22.26087-13.356522 0-8.904348-4.452174-22.26087-8.904348-26.713043zM712.347826 539.826087H356.173913c-26.713043 0-44.521739 17.808696-44.521739 44.521739s17.808696 44.521739 44.521739 44.521739h356.173913c26.713043 0 44.521739-17.808696 44.521739-44.521739s-17.808696-44.521739-44.521739-44.521739z"  horiz-adv-x="1024" />
      
      <glyph glyph-name="rizhizongliang" unicode="&#62524;" d="M637.017043 694.850783c0 12.55513 10.017391 23.062261 21.949218 23.06226 11.976348 0 21.993739-10.50713 21.993739-23.06226v-32.011131h-43.942957v32.011131z m-224.745739-32.011131v32.011131c0 12.55513-10.017391 23.062261-21.993739 23.06226-11.931826 0-21.949217-10.50713-21.949217-23.06226v-32.011131h43.942956z m352.345044-18.209391h-84.057044v-66.782609c0-12.55513-10.017391-23.062261-21.949217-23.062261-11.976348 0-21.993739 10.50713-21.993739 23.062261v66.782609H412.271304v-66.782609c0-12.55513-9.97287-23.062261-21.949217-23.062261-11.931826 0-21.949217 10.50713-21.949217 23.062261v66.782609H284.271304C250.345739 644.630261 222.608696 615.958261 222.608696 579.895652v-447.309913c0-35.617391 27.38087-64.77913 61.662608-64.77913h480.345044c33.925565 0 61.662609 28.761043 61.662609 64.77913V579.895652c0 35.617391-27.737043 64.734609-61.662609 64.734609z m-53.604174-423.846957H381.417739c-11.931826 0-21.949217 10.551652-21.949217 23.151305 0 12.466087 10.017391 23.017739 21.949217 23.017739h329.594435c11.976348 0 21.993739-10.50713 21.993739-23.062261 0-12.55513-10.017391-23.062261-21.993739-23.062261z m0 138.907826h-185.433044c-11.931826 0-21.949217 10.50713-21.949217 23.062261 0 12.55513 10.017391 23.062261 21.949217 23.062261h185.433044c11.976348 0 21.993739-10.50713 21.993739-23.062261-0.400696-12.955826-10.017391-23.106783-21.993739-23.106782z"  horiz-adv-x="1024" />
      
      <glyph glyph-name="shuaxinzhongshi" unicode="&#62513;" d="M619.373714 568.832a241.554286 241.554286 0 1 1 128.548572-213.540571 20.992 20.992 0 1 1-41.984 0 199.533714 199.533714 0 1 0-106.203429 176.457142 20.992 20.992 0 0 1 19.638857 37.083429z m-92.964571-59.318857a20.992 20.992 0 1 1 17.92-37.961143l94.354286 44.434286c10.057143 4.754286 14.665143 16.457143 10.569142 26.770285l-41.472 103.862858a21.028571 21.028571 0 1 1-39.058285-15.506286l34.194285-85.577143-76.434285-36.022857h-0.073143z"  horiz-adv-x="1024" />
      
      <glyph glyph-name="xuanzhong" unicode="&#62512;" d="M939.255172 839.503448C918.068966 860.689655 893.351724 871.282759 865.103448 871.282759H52.965517l918.068966-723.862069V765.351724c0 28.248276-10.593103 52.965517-31.779311 74.151724z m-42.372413-112.993103L681.489655 507.586207c-7.062069-7.062069-17.655172-10.593103-24.717241-3.531035l-7.062069 7.062069-95.337931 98.868966c-7.062069 7.062069-7.062069 17.655172 0 24.717241 7.062069 7.062069 17.655172 7.062069 24.717241 0l88.275862-91.806896 204.8 208.331034c7.062069 7.062069 17.655172 7.062069 24.717242 0 3.531034-7.062069 3.531034-17.655172 0-24.717241z"  horiz-adv-x="1024" />
      
      <glyph glyph-name="jiaoben" unicode="&#62511;" d="M444.549565 586.24v-134.789565h134.90087v-134.90087h134.789565V586.24H444.549565z m0-134.789565h-134.789565v-269.690435H579.450435V316.549565h-134.90087v134.90087zM815.415652 754.754783H208.606609a67.517217 67.517217 0 0 1-67.450435-67.450435v-606.697739a67.517217 67.517217 0 0 1 67.450435-67.450435h606.697739a67.517217 67.517217 0 0 1 67.450435 67.450435V687.393391a67.428174 67.428174 0 0 1-67.361392 67.361392zM208.606609 80.584348V687.393391h606.697739l0.089043-606.697739H208.606609v-0.089043z"  horiz-adv-x="1024" />
      
      <glyph glyph-name="dangri" unicode="&#62464;" d="M260.672 229.184L19.2 470.656v0.064L83.456 535.04a68.288 68.288 0 0 0 74.432 14.784L320.512 482.56h0.064l313.792 241.92V724.48L550.4 808.512l48.192 48.192a68.288 68.288 0 0 0 96.64 0l48.256-48.192 0.192 0.256 193.088-193.28-0.192-0.128 48.192-48.256a68.288 68.288 0 0 0 0-96.64l-48.192-48.256h-0.128L852.416 506.24h-0.192l-241.92-313.6v-0.192l67.328-162.624c10.624-25.536 4.8-54.976-14.72-74.496l-64.32-64.256h-0.128L357.248 132.48l-241.152-241.152H19.456v96.64l241.216 241.088h0.128l-0.128 0.064z"  horiz-adv-x="1024" />
      
      <glyph glyph-name="application" unicode="&#58881;" d="M902.4 613.312l-394.688-195.488L113.024 613.312c-21.696 11.488-20.192 38.816 1.408 48.896l364.384 159.584a64.768 64.768 0 0 0 56.384 0l364.288-158.208c24.608-11.488 24.608-38.816 2.912-50.304zM428.192-58.208L94.304 123.008c-20.192 10.112-31.808 27.296-31.808 47.392V534.208c0 21.6 27.488 34.496 47.712 23.008l334.016-181.184c18.816-10.112 30.4-27.296 30.4-47.392v-363.808c1.312-20.096-26.112-34.496-46.4-23.008z m160.512 0l334.016 181.216c18.784 10.112 30.4 27.296 30.4 47.392V534.208c0 21.6-27.488 34.496-47.712 23.008L569.92 377.504c-18.784-10.112-30.4-27.296-30.4-47.392v-363.808c0-21.6 27.488-36 49.216-24.512z"  horiz-adv-x="1024" />
      
      <glyph glyph-name="gaojing" unicode="&#62271;" d="M1111.6032 17.066667L650.8032 827.733333C633.736533 870.4 608.136533 896 574.0032 896c-42.666667 0-68.266667-34.133333-85.333333-68.266667L27.869867 17.066667c-17.066667-34.133333-34.133333-68.266667-25.6-102.4 8.533333-25.6 42.666667-42.666667 85.333333-42.666667h972.8c59.733333 0 76.8 25.6 76.8 42.666667 8.533333 34.133333-8.533333 68.266667-25.6 102.4zM514.269867 563.2c0 34.133333 25.6 59.733333 59.733333 59.733333 34.133333 0 59.733333-25.6 59.733333-59.733333v-273.066667c0-34.133333-25.6-59.733333-59.733333-59.733333-34.133333 0-59.733333 25.6-59.733333 59.733333V563.2z m0-469.333333c0 34.133333 25.6 59.733333 59.733333 59.733333s59.733333-25.6 59.733333-59.733333-25.6-59.733333-59.733333-59.733334-59.733333 25.6-59.733333 59.733334z"  horiz-adv-x="1196" />
      
      <glyph glyph-name="siyouyun" unicode="&#62262;" d="M968.02816 596.48c156.16-23.04 268.8-161.28 256-314.88-7.68-79.36-46.08-151.04-102.4-199.68l-7.68 15.36c-15.36 23.04-33.28 46.08-53.76 64 15.36 12.8 28.16 28.16 38.4 46.08 35.84 61.44 35.84 135.68 0 197.12-35.84 61.44-102.4 99.84-174.08 97.28-12.8 0-25.6 5.12-35.84 15.36-12.8 7.68-17.92 20.48-17.92 33.28 0 135.68-112.64 245.76-253.44 245.76s-253.44-110.08-253.44-245.76v-10.24c120.32-33.28 202.24-138.24 202.24-258.56 0-17.92-10.24-33.28-25.6-43.52-15.36-7.68-35.84-7.68-51.2 0-15.36 7.68-25.6 25.6-25.6 43.52 0 94.72-79.36 171.52-176.64 171.52-97.28 0-176.64-76.8-176.64-171.52s79.36-171.52 176.64-171.52h345.6c-2.56-2.56-5.12-7.68-7.68-10.24-17.92-25.6-30.72-56.32-38.4-87.04H284.50816C138.58816 5.12 8.02816 120.32 0.34816 268.8s112.64 276.48 263.68 281.6c0 181.76 143.36 332.8 330.24 343.04 186.88 12.8 350.72-117.76 373.76-296.96zM993.62816 238.08c0 69.12-53.76 122.88-120.32 122.88s-120.32-56.32-120.32-122.88c0-33.28 12.8-64 35.84-87.04-84.48-35.84-138.24-120.32-138.24-215.04 0-7.68 2.56-25.6 5.12-53.76h437.76c2.56 28.16 5.12 46.08 5.12 53.76 0 92.16-53.76 176.64-138.24 215.04 20.48 23.04 33.28 53.76 33.28 87.04z"  horiz-adv-x="1229" />
      
      <glyph glyph-name="siyouyun3" unicode="&#62263;" d="M968.02816 596.48c156.16-23.04 268.8-161.28 256-314.88-7.68-79.36-46.08-151.04-102.4-199.68l-7.68 15.36c-15.36 23.04-33.28 46.08-53.76 64 15.36 12.8 28.16 28.16 38.4 46.08 35.84 61.44 35.84 135.68 0 197.12-35.84 61.44-102.4 99.84-174.08 97.28-12.8 0-25.6 5.12-35.84 15.36-12.8 7.68-17.92 20.48-17.92 33.28 0 135.68-112.64 245.76-253.44 245.76s-253.44-110.08-253.44-245.76v-10.24c120.32-33.28 202.24-138.24 202.24-258.56 0-17.92-10.24-33.28-25.6-43.52-15.36-7.68-35.84-7.68-51.2 0-15.36 7.68-25.6 25.6-25.6 43.52 0 94.72-79.36 171.52-176.64 171.52-97.28 0-176.64-76.8-176.64-171.52s79.36-171.52 176.64-171.52h345.6c-2.56-2.56-5.12-7.68-7.68-10.24-17.92-25.6-30.72-56.32-38.4-87.04H284.50816C138.58816 5.12 8.02816 120.32 0.34816 268.8s112.64 276.48 263.68 281.6c0 181.76 143.36 332.8 330.24 343.04 186.88 12.8 350.72-117.76 373.76-296.96zM993.62816 238.08c0 69.12-53.76 122.88-120.32 122.88s-120.32-56.32-120.32-122.88c0-33.28 12.8-64 35.84-87.04-84.48-35.84-138.24-120.32-138.24-215.04 0-7.68 2.56-25.6 5.12-53.76h437.76c2.56 28.16 5.12 46.08 5.12 53.76 0 92.16-53.76 176.64-138.24 215.04 20.48 23.04 33.28 53.76 33.28 87.04z"  horiz-adv-x="1229" />
      
      <glyph glyph-name="gongyouyun" unicode="&#62264;" d="M900.367454 302.026247c59.128609 0 110.194226-48.377953 110.194226-110.194226 0-29.564304-10.750656-56.440945-32.251969-77.942257 75.254593-32.251969 123.632546-107.506562 123.632546-190.824147 0-8.062992-2.687664-24.188976-5.375328-48.377953h-86.005249c2.687664 24.188976 5.375328 40.314961 5.375328 48.377953 0 53.753281-16.125984 104.818898-43.002625 145.133858-16.125984 24.188976-37.627297 48.377953-61.816273 64.503937 8.062992 18.813648 10.750656 37.627297 10.750656 59.128609 0 40.314961-16.125984 80.629921-40.31496 107.506562 8.062992 2.687664 13.43832 2.687664 18.813648 2.687664zM806.299213 721.301837h-201.574804c-21.501312 0-32.251969-10.750656-32.251968-32.251968 0-21.501312 10.750656-32.251969 32.251968-32.251969H806.299213c21.501312 0 32.251969 10.750656 32.251968 32.251969 0 21.501312-10.750656 32.251969-32.251968 32.251968zM325.207349 721.301837c-2.687664 0-2.687664 0 0 0-18.813648-2.687664-32.251969-18.813648-29.564304-34.939632 2.687664-16.125984 18.813648-29.564304 34.939632-26.876641 18.813648 2.687664 29.564304 16.125984 29.564305 34.939633s-18.813648 29.564304-34.939633 26.87664zM209.637795 721.301837c-18.813648-2.687664-29.564304-18.813648-26.87664-34.939632 2.687664-16.125984 18.813648-29.564304 34.939632-26.876641 18.813648 2.687664 29.564304 16.125984 29.564305 34.939633s-18.813648 29.564304-37.627297 26.87664zM838.551181 422.971129c0 21.501312-10.750656 32.251969-32.251968 32.251968h-201.574804c-21.501312 0-32.251969-10.750656-32.251968-32.251968 0-21.501312 10.750656-32.251969 32.251968-32.251969H806.299213c21.501312 0 32.251969 10.750656 32.251968 32.251969zM322.519685 186.456693c-16.125984-2.687664-29.564304-18.813648-26.87664-34.939633 2.687664-16.125984 18.813648-29.564304 34.939632-26.87664 18.813648 2.687664 29.564304 18.813648 26.876641 34.939632-2.687664 16.125984-16.125984 26.87664-32.251969 26.876641H322.519685zM244.577428 159.580052c-2.687664 16.125984-18.813648 29.564304-34.939633 26.876641-16.125984-2.687664-29.564304-18.813648-26.87664-34.939633 2.687664-16.125984 18.813648-29.564304 34.939632-26.87664 16.125984 2.687664 29.564304 18.813648 26.876641 34.939632zM209.637795 455.223097c-16.125984-2.687664-29.564304-18.813648-26.87664-34.939632 2.687664-16.125984 18.813648-29.564304 34.939632-26.876641 18.813648 2.687664 29.564304 16.125984 29.564305 34.939633s-18.813648 26.87664-37.627297 26.87664zM322.519685 455.223097c-16.125984-2.687664-29.564304-18.813648-26.87664-34.939632 2.687664-16.125984 18.813648-29.564304 34.939632-26.876641 18.813648 2.687664 29.564304 16.125984 29.564305 34.939633s-18.813648 26.87664-37.627297 26.87664zM545.595801 54.761155H102.131234c-2.687664 0-5.375328 2.687664-5.375328 5.375328v198.887139H618.16273c8.062992 16.125984 18.813648 29.564304 29.564304 43.002625 16.125984 16.125984 37.627297 29.564304 59.128609 37.627296H96.755906v185.448819h825.11286v-180.073491c34.939633-5.375328 67.191601-21.501312 91.380578-45.690288l5.375328-5.375328V826.120735c0 37.627297-32.251969 69.879265-69.879265 69.879265H69.879265C32.251969 896 0 863.748031 0 826.120735v-795.548557c0-45.690289 32.251969-80.629921 75.254593-80.629921H510.656168c2.687664 37.627297 16.125984 72.566929 34.939633 104.818898zM96.755906 785.805774c0 2.687664 2.687664 5.375328 5.375328 5.375328H913.805774c2.687664 0 5.375328-2.687664 5.375328-5.375328v-198.887139H96.755906V785.805774zM865.427822 191.832021c0 61.816273-48.377953 110.194226-110.194226 110.194226-59.128609 0-110.194226-48.377953-110.194226-110.194226 0-29.564304 10.750656-56.440945 32.251969-77.942257-75.254593-32.251969-123.632546-107.506562-123.632546-190.824147 0-8.062992 2.687664-24.188976 5.375328-48.377953h395.086614c2.687664 24.188976 5.375328 40.314961 5.375328 48.377953 0 83.317585-48.377953 158.572178-123.632546 190.824147 18.813648 18.813648 29.564304 48.377953 29.564305 77.942257z"  horiz-adv-x="1104" />
      
      <glyph glyph-name="IDC3" unicode="&#62265;" d="M188.235294 223.372549H276.078431v-87.843137H188.235294v87.843137z m175.686275 0H451.764706v-87.843137h-87.843137v87.843137zM612.392157 77.803922h-527.058824v205.803921h875.921569v-30.117647h87.843137V293.647059c0 47.686275-40.156863 87.843137-87.843137 87.843137H87.843137C40.156863 381.490196 0 341.333333 0 293.647059v-228.392157c0-47.686275 40.156863-87.843137 87.843137-87.843137h527.058824v100.392157zM1001.411765 42.666667v30.117647l40.156862 30.117647c2.509804 2.509804 5.019608 7.529412 2.509804 12.549019l-2.509804 2.509804-35.137254 60.235294c0 5.019608-7.529412 5.019608-12.54902 5.019608l-47.686275-17.568627c-7.529412 5.019608-17.568627 12.54902-25.098039 12.549019l-7.529412 47.686275c0 5.019608-5.019608 7.529412-7.529411 7.529412h-75.294118c-5.019608 0-7.529412-5.019608-7.529412-7.529412l-7.529411-47.686275-25.09804-12.549019-47.686274 17.568627c-5.019608 0-10.039216 0-12.54902-5.019608l-40.156863-65.254902v-12.549019l40.156863-30.117647v-30.117647l-40.156863-30.117647c-2.509804-2.509804-5.019608-7.529412-2.509803-12.54902l2.509803-2.509804 40.156863-65.254902c0-5.019608 7.529412-5.019608 12.54902-5.019608l47.686274 17.568628c7.529412-5.019608 17.568627-12.54902 25.09804-12.54902l7.529411-47.686274c0-5.019608 5.019608-7.529412 7.529412-7.529412h75.294118c5.019608 0 7.529412 5.019608 7.529411 7.529412l7.529412 47.686274 25.098039 12.54902 47.686275-17.568628c5.019608 0 10.039216 0 12.54902 5.019608l40.156862 65.254902v12.54902L1001.411765 42.666667z m-135.529412-37.647059c-27.607843 0-52.705882 22.588235-52.705882 52.705882 0 30.117647 22.588235 52.705882 52.705882 52.705883 30.117647 0 52.705882-22.588235 52.705882-52.705883-2.509804-30.117647-25.098039-52.705882-52.705882-52.705882zM95.372549 476.862745V865.882353h110.431373v-389.019608H95.372549z m499.45098 203.294118c2.509804-133.019608-57.72549-198.27451-178.196078-195.764706h-145.568627V865.882353h148.078431c115.45098-2.509804 173.176471-62.745098 175.686274-185.72549z m-213.333333-120.470588h22.588235c55.215686 0 80.313725 37.647059 77.803922 112.941176 0 75.294118-25.098039 110.431373-80.313726 110.431373h-22.588235v-223.372549z m411.607843-82.82353c-115.45098 2.509804-175.686275 67.764706-178.196078 190.745098 7.529412 122.980392 65.254902 188.235294 170.666666 198.27451 102.901961 0 158.117647-50.196078 168.156863-148.078431h-105.411765c-2.509804 45.176471-22.588235 67.764706-57.72549 67.764705-40.156863-5.019608-60.235294-42.666667-62.745098-120.470588-2.509804-75.294118 20.078431-112.941176 62.745098-110.431372 35.137255 0 55.215686 22.588235 57.72549 70.274509H953.72549c-7.529412-100.392157-62.745098-150.588235-160.627451-148.078431z"  horiz-adv-x="1054" />
      
      <glyph glyph-name="gongyouyun3" unicode="&#62266;" d="M900.367454 302.026247c59.128609 0 110.194226-48.377953 110.194226-110.194226 0-29.564304-10.750656-56.440945-32.251969-77.942257 75.254593-32.251969 123.632546-107.506562 123.632546-190.824147 0-8.062992-2.687664-24.188976-5.375328-48.377953h-86.005249c2.687664 24.188976 5.375328 40.314961 5.375328 48.377953 0 53.753281-16.125984 104.818898-43.002625 145.133858-16.125984 24.188976-37.627297 48.377953-61.816273 64.503937 8.062992 18.813648 10.750656 37.627297 10.750656 59.128609 0 40.314961-16.125984 80.629921-40.31496 107.506562 8.062992 2.687664 13.43832 2.687664 18.813648 2.687664zM806.299213 721.301837h-201.574804c-21.501312 0-32.251969-10.750656-32.251968-32.251968 0-21.501312 10.750656-32.251969 32.251968-32.251969H806.299213c21.501312 0 32.251969 10.750656 32.251968 32.251969 0 21.501312-10.750656 32.251969-32.251968 32.251968zM325.207349 721.301837c-2.687664 0-2.687664 0 0 0-18.813648-2.687664-32.251969-18.813648-29.564304-34.939632 2.687664-16.125984 18.813648-29.564304 34.939632-26.876641 18.813648 2.687664 29.564304 16.125984 29.564305 34.939633s-18.813648 29.564304-34.939633 26.87664zM838.551181 422.971129c0 21.501312-10.750656 32.251969-32.251968 32.251968h-201.574804c-21.501312 0-32.251969-10.750656-32.251968-32.251968 0-21.501312 10.750656-32.251969 32.251968-32.251969H806.299213c21.501312 0 32.251969 10.750656 32.251968 32.251969zM209.637795 721.301837c-18.813648-2.687664-29.564304-18.813648-26.87664-34.939632 2.687664-16.125984 18.813648-29.564304 34.939632-26.876641 18.813648 2.687664 29.564304 16.125984 29.564305 34.939633s-18.813648 29.564304-37.627297 26.87664zM322.519685 455.223097c-16.125984-2.687664-29.564304-18.813648-26.87664-34.939632 2.687664-16.125984 18.813648-29.564304 34.939632-26.876641 18.813648 2.687664 29.564304 16.125984 29.564305 34.939633s-18.813648 26.87664-37.627297 26.87664zM545.595801 54.761155H102.131234c-2.687664 0-5.375328 2.687664-5.375328 5.375328v198.887139H618.16273c8.062992 16.125984 18.813648 29.564304 29.564304 43.002625 16.125984 16.125984 37.627297 29.564304 59.128609 37.627296H96.755906v185.448819h825.11286v-180.073491c34.939633-5.375328 67.191601-21.501312 91.380578-45.690288l5.375328-5.375328V826.120735c0 37.627297-32.251969 69.879265-69.879265 69.879265H69.879265C32.251969 896 0 863.748031 0 826.120735v-795.548557c0-45.690289 32.251969-80.629921 75.254593-80.629921H510.656168c2.687664 37.627297 16.125984 72.566929 34.939633 104.818898zM96.755906 785.805774c0 2.687664 2.687664 5.375328 5.375328 5.375328H913.805774c2.687664 0 5.375328-2.687664 5.375328-5.375328v-198.887139H96.755906V785.805774zM244.577428 159.580052c-2.687664 16.125984-18.813648 29.564304-34.939633 26.876641-16.125984-2.687664-29.564304-18.813648-26.87664-34.939633 2.687664-16.125984 18.813648-29.564304 34.939632-26.87664 16.125984 2.687664 29.564304 18.813648 26.876641 34.939632zM322.519685 186.456693c-16.125984-2.687664-29.564304-18.813648-26.87664-34.939633 2.687664-16.125984 18.813648-29.564304 34.939632-26.87664 18.813648 2.687664 29.564304 18.813648 26.876641 34.939632-2.687664 16.125984-16.125984 26.87664-32.251969 26.876641H322.519685zM209.637795 455.223097c-16.125984-2.687664-29.564304-18.813648-26.87664-34.939632 2.687664-16.125984 18.813648-29.564304 34.939632-26.876641 18.813648 2.687664 29.564304 16.125984 29.564305 34.939633s-18.813648 26.87664-37.627297 26.87664zM865.427822 191.832021c0 61.816273-48.377953 110.194226-110.194226 110.194226-59.128609 0-110.194226-48.377953-110.194226-110.194226 0-29.564304 10.750656-56.440945 32.251969-77.942257-75.254593-32.251969-123.632546-107.506562-123.632546-190.824147 0-8.062992 2.687664-24.188976 5.375328-48.377953h395.086614c2.687664 24.188976 5.375328 40.314961 5.375328 48.377953 0 83.317585-48.377953 158.572178-123.632546 190.824147 18.813648 18.813648 29.564304 48.377953 29.564305 77.942257z"  horiz-adv-x="1104" />
      
      <glyph glyph-name="gongyouyun2" unicode="&#62267;" d="M900.367454 302.026247c59.128609 0 110.194226-48.377953 110.194226-110.194226 0-29.564304-10.750656-56.440945-32.251969-77.942257 75.254593-32.251969 123.632546-107.506562 123.632546-190.824147 0-8.062992-2.687664-24.188976-5.375328-48.377953h-86.005249c2.687664 24.188976 5.375328 40.314961 5.375328 48.377953 0 53.753281-16.125984 104.818898-43.002625 145.133858-16.125984 24.188976-37.627297 48.377953-61.816273 64.503937 8.062992 18.813648 10.750656 37.627297 10.750656 59.128609 0 40.314961-16.125984 80.629921-40.31496 107.506562 8.062992 2.687664 13.43832 2.687664 18.813648 2.687664zM806.299213 721.301837h-201.574804c-21.501312 0-32.251969-10.750656-32.251968-32.251968 0-21.501312 10.750656-32.251969 32.251968-32.251969H806.299213c21.501312 0 32.251969 10.750656 32.251968 32.251969 0 21.501312-10.750656 32.251969-32.251968 32.251968zM325.207349 721.301837c-2.687664 0-2.687664 0 0 0-18.813648-2.687664-32.251969-18.813648-29.564304-34.939632 2.687664-16.125984 18.813648-29.564304 34.939632-26.876641 18.813648 2.687664 29.564304 16.125984 29.564305 34.939633s-18.813648 29.564304-34.939633 26.87664zM838.551181 422.971129c0 21.501312-10.750656 32.251969-32.251968 32.251968h-201.574804c-21.501312 0-32.251969-10.750656-32.251968-32.251968 0-21.501312 10.750656-32.251969 32.251968-32.251969H806.299213c21.501312 0 32.251969 10.750656 32.251968 32.251969zM209.637795 721.301837c-18.813648-2.687664-29.564304-18.813648-26.87664-34.939632 2.687664-16.125984 18.813648-29.564304 34.939632-26.876641 18.813648 2.687664 29.564304 16.125984 29.564305 34.939633s-18.813648 29.564304-37.627297 26.87664zM322.519685 455.223097c-16.125984-2.687664-29.564304-18.813648-26.87664-34.939632 2.687664-16.125984 18.813648-29.564304 34.939632-26.876641 18.813648 2.687664 29.564304 16.125984 29.564305 34.939633s-18.813648 26.87664-37.627297 26.87664zM322.519685 186.456693c-16.125984-2.687664-29.564304-18.813648-26.87664-34.939633 2.687664-16.125984 18.813648-29.564304 34.939632-26.87664 18.813648 2.687664 29.564304 18.813648 26.876641 34.939632-2.687664 16.125984-16.125984 26.87664-32.251969 26.876641H322.519685zM244.577428 159.580052c-2.687664 16.125984-18.813648 29.564304-34.939633 26.876641-16.125984-2.687664-29.564304-18.813648-26.87664-34.939633 2.687664-16.125984 18.813648-29.564304 34.939632-26.87664 16.125984 2.687664 29.564304 18.813648 26.876641 34.939632zM545.595801 54.761155H102.131234c-2.687664 0-5.375328 2.687664-5.375328 5.375328v198.887139H618.16273c8.062992 16.125984 18.813648 29.564304 29.564304 43.002625 16.125984 16.125984 37.627297 29.564304 59.128609 37.627296H96.755906v185.448819h825.11286v-180.073491c34.939633-5.375328 67.191601-21.501312 91.380578-45.690288l5.375328-5.375328V826.120735c0 37.627297-32.251969 69.879265-69.879265 69.879265H69.879265C32.251969 896 0 863.748031 0 826.120735v-795.548557c0-45.690289 32.251969-80.629921 75.254593-80.629921H510.656168c2.687664 37.627297 16.125984 72.566929 34.939633 104.818898zM96.755906 785.805774c0 2.687664 2.687664 5.375328 5.375328 5.375328H913.805774c2.687664 0 5.375328-2.687664 5.375328-5.375328v-198.887139H96.755906V785.805774zM209.637795 455.223097c-16.125984-2.687664-29.564304-18.813648-26.87664-34.939632 2.687664-16.125984 18.813648-29.564304 34.939632-26.876641 18.813648 2.687664 29.564304 16.125984 29.564305 34.939633s-18.813648 26.87664-37.627297 26.87664zM865.427822 191.832021c0 61.816273-48.377953 110.194226-110.194226 110.194226-59.128609 0-110.194226-48.377953-110.194226-110.194226 0-29.564304 10.750656-56.440945 32.251969-77.942257-75.254593-32.251969-123.632546-107.506562-123.632546-190.824147 0-8.062992 2.687664-24.188976 5.375328-48.377953h395.086614c2.687664 24.188976 5.375328 40.314961 5.375328 48.377953 0 83.317585-48.377953 158.572178-123.632546 190.824147 18.813648 18.813648 29.564304 48.377953 29.564305 77.942257z"  horiz-adv-x="1104" />
      
      <glyph glyph-name="IDC" unicode="&#62268;" d="M192 235.52H281.6v-89.6H192v89.6z m179.2 0H460.8v-89.6h-89.6v89.6zM624.64 87.04h-537.6v209.92h893.44v-30.72h89.6V307.2c0 48.64-40.96 89.6-89.6 89.6H89.6C40.96 396.8 0 355.84 0 307.2v-232.96c0-48.64 40.96-89.6 89.6-89.6h537.6v102.4zM1021.44 51.2v30.72l40.96 30.72c2.56 2.56 5.12 7.68 2.56 12.8l-2.56 2.56-35.84 61.44c0 5.12-7.68 5.12-12.8 5.12l-48.64-17.92c-7.68 5.12-17.92 12.8-25.6 12.8l-7.68 48.64c0 5.12-5.12 7.68-7.68 7.68h-76.8c-5.12 0-7.68-5.12-7.68-7.68l-7.68-48.64-25.6-12.8-48.64 17.92c-5.12 0-10.24 0-12.8-5.12l-40.96-66.56v-12.8l40.96-30.72v-30.72l-40.96-30.72c-2.56-2.56-5.12-7.68-2.56-12.8l2.56-2.56 40.96-66.56c0-5.12 7.68-5.12 12.8-5.12l48.64 17.92c7.68-5.12 17.92-12.8 25.6-12.8l7.68-48.64c0-5.12 5.12-7.68 7.68-7.68h76.8c5.12 0 7.68 5.12 7.68 7.68l7.68 48.64 25.6 12.8 48.64-17.92c5.12 0 10.24 0 12.8 5.12l40.96 66.56v12.8L1021.44 51.2z m-138.24-38.4c-28.16 0-53.76 23.04-53.76 53.76 0 30.72 23.04 53.76 53.76 53.76 30.72 0 53.76-23.04 53.76-53.76-2.56-30.72-25.6-53.76-53.76-53.76zM97.28 494.08V890.88h112.64v-396.8H97.28z m509.44 207.36c2.56-135.68-58.88-202.24-181.76-199.68h-148.48V890.88h151.04c117.76-2.56 176.64-64 179.2-189.44z m-217.6-122.88h23.04c56.32 0 81.92 38.4 79.36 115.2 0 76.8-25.6 112.64-81.92 112.64h-23.04v-227.84z m419.84-84.48c-117.76 2.56-179.2 69.12-181.76 194.56 7.68 125.44 66.56 192 174.08 202.24 104.96 0 161.28-51.2 171.52-151.04h-107.52c-2.56 46.08-23.04 69.12-58.88 69.12-40.96-5.12-61.44-43.52-64-122.88-2.56-76.8 20.48-115.2 64-112.64 35.84 0 56.32 23.04 58.88 71.68H972.8c-7.68-102.4-64-153.6-163.84-151.04z"  horiz-adv-x="1075" />
      
      <glyph glyph-name="siyouyun2" unicode="&#62269;" d="M968.02816 596.48c156.16-23.04 268.8-161.28 256-314.88-7.68-79.36-46.08-151.04-102.4-199.68l-7.68 15.36c-15.36 23.04-33.28 46.08-53.76 64 15.36 12.8 28.16 28.16 38.4 46.08 35.84 61.44 35.84 135.68 0 197.12-35.84 61.44-102.4 99.84-174.08 97.28-12.8 0-25.6 5.12-35.84 15.36-12.8 7.68-17.92 20.48-17.92 33.28 0 135.68-112.64 245.76-253.44 245.76s-253.44-110.08-253.44-245.76v-10.24c120.32-33.28 202.24-138.24 202.24-258.56 0-17.92-10.24-33.28-25.6-43.52-15.36-7.68-35.84-7.68-51.2 0-15.36 7.68-25.6 25.6-25.6 43.52 0 94.72-79.36 171.52-176.64 171.52-97.28 0-176.64-76.8-176.64-171.52s79.36-171.52 176.64-171.52h345.6c-2.56-2.56-5.12-7.68-7.68-10.24-17.92-25.6-30.72-56.32-38.4-87.04H284.50816C138.58816 5.12 8.02816 120.32 0.34816 268.8s112.64 276.48 263.68 281.6c0 181.76 143.36 332.8 330.24 343.04 186.88 12.8 350.72-117.76 373.76-296.96zM993.62816 238.08c0 69.12-53.76 122.88-120.32 122.88s-120.32-56.32-120.32-122.88c0-33.28 12.8-64 35.84-87.04-84.48-35.84-138.24-120.32-138.24-215.04 0-7.68 2.56-25.6 5.12-53.76h437.76c2.56 28.16 5.12 46.08 5.12 53.76 0 92.16-53.76 176.64-138.24 215.04 20.48 23.04 33.28 53.76 33.28 87.04z"  horiz-adv-x="1229" />
      
      <glyph glyph-name="IDC2" unicode="&#62270;" d="M192 235.52H281.6v-89.6H192v89.6z m179.2 0H460.8v-89.6h-89.6v89.6zM624.64 87.04h-537.6v209.92h893.44v-30.72h89.6V307.2c0 48.64-40.96 89.6-89.6 89.6H89.6C40.96 396.8 0 355.84 0 307.2v-232.96c0-48.64 40.96-89.6 89.6-89.6h537.6v102.4zM1021.44 51.2v30.72l40.96 30.72c2.56 2.56 5.12 7.68 2.56 12.8l-2.56 2.56-35.84 61.44c0 5.12-7.68 5.12-12.8 5.12l-48.64-17.92c-7.68 5.12-17.92 12.8-25.6 12.8l-7.68 48.64c0 5.12-5.12 7.68-7.68 7.68h-76.8c-5.12 0-7.68-5.12-7.68-7.68l-7.68-48.64-25.6-12.8-48.64 17.92c-5.12 0-10.24 0-12.8-5.12l-40.96-66.56v-12.8l40.96-30.72v-30.72l-40.96-30.72c-2.56-2.56-5.12-7.68-2.56-12.8l2.56-2.56 40.96-66.56c0-5.12 7.68-5.12 12.8-5.12l48.64 17.92c7.68-5.12 17.92-12.8 25.6-12.8l7.68-48.64c0-5.12 5.12-7.68 7.68-7.68h76.8c5.12 0 7.68 5.12 7.68 7.68l7.68 48.64 25.6 12.8 48.64-17.92c5.12 0 10.24 0 12.8 5.12l40.96 66.56v12.8L1021.44 51.2z m-138.24-38.4c-28.16 0-53.76 23.04-53.76 53.76 0 30.72 23.04 53.76 53.76 53.76 30.72 0 53.76-23.04 53.76-53.76-2.56-30.72-25.6-53.76-53.76-53.76zM97.28 494.08V890.88h112.64v-396.8H97.28z m509.44 207.36c2.56-135.68-58.88-202.24-181.76-199.68h-148.48V890.88h151.04c117.76-2.56 176.64-64 179.2-189.44z m-217.6-122.88h23.04c56.32 0 81.92 38.4 79.36 115.2 0 76.8-25.6 112.64-81.92 112.64h-23.04v-227.84z m419.84-84.48c-117.76 2.56-179.2 69.12-181.76 194.56 7.68 125.44 66.56 192 174.08 202.24 104.96 0 161.28-51.2 171.52-151.04h-107.52c-2.56 46.08-23.04 69.12-58.88 69.12-40.96-5.12-61.44-43.52-64-122.88-2.56-76.8 20.48-115.2 64-112.64 35.84 0 56.32 23.04 58.88 71.68H972.8c-7.68-102.4-64-153.6-163.84-151.04z"  horiz-adv-x="1075" />
      
      <glyph glyph-name="weilianjie" unicode="&#62224;" d="M512-128c-281.6 0-512 230.4-512 512s230.4 512 512 512 512-230.4 512-512-230.4-512-512-512z m0 85.333333c238.933333 0 426.666667 187.733333 426.666667 426.666667S750.933333 810.666667 512 810.666667 85.333333 622.933333 85.333333 384s187.733333-426.666667 426.666667-426.666667zM264.533333 563.2c-8.533333 17.066667-8.533333 51.2 0 68.266667 17.066667 8.533333 51.2 8.533333 68.266667 0l426.666667-426.666667c8.533333-17.066667 8.533333-51.2 0-68.266667-17.066667-8.533333-51.2-8.533333-68.266667 0l-426.666667 426.666667z"  horiz-adv-x="1024" />
      
      <glyph glyph-name="Fill1" unicode="&#62221;" d="M494.933333-42.666667C256-42.666667 68.266667 153.6 68.266667 384s187.733333 418.133333 426.666666 418.133333c230.4 0 418.133333-187.733333 418.133334-418.133333s-187.733333-426.666667-418.133334-426.666667M494.933333 870.4C221.866667 870.4 0 657.066667 0 384s221.866667-494.933333 494.933333-494.933333c273.066667 0 494.933333 221.866667 494.933334 494.933333S759.466667 870.4 494.933333 870.4M776.533333 554.666667c-17.066667 17.066667-42.666667 17.066667-68.266666 0L443.733333 307.2 315.733333 426.666667c-17.066667 17.066667-42.666667 17.066667-68.266666 0-17.066667-17.066667-17.066667-42.666667 0-59.733334l170.666666-162.133333c8.533333 0 17.066667-8.533333 25.6-8.533333 17.066667 0 25.6 8.533333 34.133334 17.066666l298.666666 281.6c17.066667 17.066667 17.066667 42.666667 0 59.733334z"  horiz-adv-x="1024" />
      
      <glyph glyph-name="rmb" unicode="&#59213;" d="M512 894C230.337 894 2.004 665.665 2.004 384.004S230.337-126 512-126s509.996 228.343 509.996 510.004S793.663 894 512 894z m234.205-481.728v-70.405H586.224v-60.804h159.981v-70.406H586.224v-102.051H434.897V210.657h-165.26v70.406h165.26v60.804h-165.26v70.405h135.472L226.402 659.401h159.493l130.672-221.526h1.917c4.164 8.295 10.732 20.268 19.697 35.913l108.096 185.613h151.32L613.61 412.272h132.595z"  horiz-adv-x="1024" />
      
      <glyph glyph-name="bingzhuangtu" unicode="&#59376;" d="M1024 418.133333l-392.533333-56.888889L967.111111 156.444444c34.133333 73.955556 56.888889 147.911111 56.888889 233.244445v28.444444zM540.444444 896l17.066667-466.488889L1018.311111 497.777778C967.111111 719.644444 773.688889 884.622222 540.444444 896zM477.866667 361.244444l-5.688889 164.977778L460.8 896C199.111111 867.555556 0 645.688889 0 384c0-284.444444 227.555556-512 512-512 164.977778 0 318.577778 79.644444 415.288889 216.177778L477.866667 361.244444z"  horiz-adv-x="1024" />
      
      <glyph glyph-name="daochu1" unicode="&#58880;" d="M576 512l0-320L448 192 448 512 256 512l256 256.00000002 256-256.00000002L576 512zM128 448l64 0 0-448-64 0 0 448ZM832 448l64 0 0-448-64 0 0 448ZM896 64l0-64-768 0 0 64 768 0Z"  horiz-adv-x="1024" />
      
      <glyph glyph-name="shangsheng" unicode="&#58930;" d="M765.792 440.832L512.032 720l-253.76-279.168c-21.856-24.064-13.312-43.52 19.04-43.52H394.72V74.72c0-32.544 26.24-58.752 58.624-58.752h117.44a58.56 58.56 0 0 1 58.624 58.752V397.344h117.408c32.192 0 40.832 19.456 18.976 43.488z"  horiz-adv-x="1024" />
      
      <glyph glyph-name="Windows1" unicode="&#62147;" d="M92.499347 693.365008v-257.003445l262.233519 10.46015V751.017461l-262.233519-57.652453z m0 0M459.577622 782.519539v-319.885972l471.923031 18.366077V882.13422zM92.499347 331.516807v-257.003444l262.233519-57.652453V321.056658zM459.577622 305.244803v-319.885972l471.923031-99.614681V286.878727z"  horiz-adv-x="1024" />
      
      <glyph glyph-name="AZURE1" unicode="&#62148;" d="M602.431643-60.982064l306.993229 53.881933h2.675853l-158.118542 185.850101C667.260245 280.432355 596.228531 364.478442 596.228531 365.08659c0 0.486519 162.862098 444.313101 163.956764 445.894287 1.094667 1.581185 111.534387-188.525953 269.288039-457.813993C1177.374985 100.298848 1298.761373-108.174368 1298.761373-109.998812l2.189334-3.770519H298.114265l304.317378 53.881933v-1.094666zM0-4.667538l165.294691 283.518708L330.95427 561.883359l194.120917 159.699727L717.1284 881.526072s0-3.52726-2.919111-7.784297l-209.202994-443.218435L298.600784-4.667538h-149.239577c-81.978382-0.608148-149.361207-0.608148-149.361207 0z m0 0"  horiz-adv-x="1300" />
      
      <glyph glyph-name="windows_h" unicode="&#62102;" d="M1377.010526 553.768421v-161.68421h194.021053v161.68421h61.978947V168.421053h-61.978947v169.768421h-194.021053V168.421053h-61.978947V553.768421zM1740.8 445.978947l72.757895-199.410526 70.063158 199.410526h67.368421L1802.778947 60.631579h-64.673684l48.505263 113.178947-110.48421 272.168421zM2225.852632 410.947368a163.031579 163.031579 0 0 0 32.336842-105.094736 161.684211 161.684211 0 0 0-32.336842-102.4 109.406316 109.406316 0 0 0-94.31579-43.11579 107.789474 107.789474 0 0 0-83.536842 45.810526V60.631579h-61.978947V445.978947h56.589473v-29.642105a102.669474 102.669474 0 0 0 83.536842 37.726316 119.646316 119.646316 0 0 0 99.705264-43.11579z m-161.684211-35.031579a118.568421 118.568421 0 0 1-16.168421-67.368421v-5.389473a107.789474 107.789474 0 0 1 21.557895-70.063158 61.170526 61.170526 0 0 1 48.505263-24.252632 63.326316 63.326316 0 0 1 59.28421 26.947369 128.269474 128.269474 0 0 1 16.168421 70.063158 128.269474 128.269474 0 0 1-16.168421 70.063157 68.176842 68.176842 0 0 1-59.28421 29.642106 65.482105 65.482105 0 0 1-53.894737-29.642106zM2535.747368 408.252632a188.631579 188.631579 0 0 0 32.336843-118.568421h-207.494737a91.890526 91.890526 0 0 1 21.557894-59.284211 64.943158 64.943158 0 0 1 51.2-21.557895A77.069474 77.069474 0 0 1 2479.157895 222.315789a130.694737 130.694737 0 0 1 24.252631 35.031579h61.978948a112.64 112.64 0 0 0-37.726316-64.673684 134.736842 134.736842 0 0 0-91.621053-32.336842 138.509474 138.509474 0 0 0-99.705263 37.726316 142.821053 142.821053 0 0 0-37.726316 107.789474 148.749474 148.749474 0 0 0 37.726316 105.094736 118.029474 118.029474 0 0 0 97.010526 43.11579 119.646316 119.646316 0 0 0 102.4-45.810526z m-150.905263-21.557895a82.189474 82.189474 0 0 1-21.557894-51.2H2506.105263a66.290526 66.290526 0 0 1-72.757895 67.368421 49.852632 49.852632 0 0 1-48.505263-16.168421zM2783.663158 448.673684v-61.978947a104.825263 104.825263 0 0 1-40.421053 5.389474 57.397895 57.397895 0 0 1-43.115789-18.863158 67.907368 67.907368 0 0 1-21.557895-56.589474V168.421053h-61.978947V445.978947h61.978947v-40.421052a107.789474 107.789474 0 0 0 26.947368 32.336842 66.021053 66.021053 0 0 0 43.11579 16.168421 119.646316 119.646316 0 0 0 35.031579-5.389474zM3085.473684 332.8v-51.2h-272.168421v51.2zM3185.178947 553.768421l105.094737-312.589474h2.694737l105.094737 312.589474h67.368421L3328 168.421053h-75.452632l-137.431579 385.347368zM0 701.978947V437.894737l269.473684 10.778947V761.263158L0 701.978947zM377.263158 793.6V464.842105l485.052631 18.863158V896L377.263158 793.6zM0 330.105263v-264.08421L269.473684 6.736842V319.326316L0 330.105263zM377.263158 303.157895v-328.757895L862.315789-128V284.294737L377.263158 303.157895z"  horiz-adv-x="3465" />
      
      <glyph glyph-name="Azure_h" unicode="&#62103;" d="M0-14.806486l169.928649 291.424864 169.928648 290.871352 198.157838 164.116756L738.387027 896a40.12973 40.12973 0 0 0-3.044324-8.025946l-216.423784-455.541622-211.718919-447.238918H153.6c-84.410811-0.553514-153.6-0.553514-153.6 0z m2954.655135-2.490811V408.631351h69.465946v-87.455135a37.362162 37.362162 0 0 1 3.874595 8.57946 149.171892 149.171892 0 0 0 38.745946 58.949189 102.123243 102.123243 0 0 0 55.351351 27.675676 105.997838 105.997838 0 0 0 22.970811 0 96.864865 96.864865 0 0 0 32.103784-4.428109h2.767567v-71.126486l-8.025946 4.151351a88.562162 88.562162 0 0 1-45.941621 9.132973 98.248649 98.248649 0 0 1-27.675676-5.258378 88.008649 88.008649 0 0 1-44.004324-35.424865 202.032432 202.032432 0 0 1-27.675676-83.027027V-17.297297h-34.041081a304.432432 304.432432 0 0 0-37.915676 0z m-932.947027 11.07027v10.793513L2149.846486 176.432432l127.308109 172.41946h-229.708109v58.672432h332.108109v-19.372973l-127.308109-173.526486-127.308108-173.803243h250.741622V-17.297297h-354.248649z m-188.194594 219.744865l-47.325406 126.754594c-48.709189 130.075676-51.753514 138.378378-55.351351 158.858379-1.660541 9.686486-2.767568 9.963243-3.874595 0a233.305946 233.305946 0 0 0-6.642162-27.675676l-48.709189-132.28973c-25.738378-68.635676-46.495135-125.370811-46.495135-125.647567s46.771892 0 104.337297 0 104.060541-0.553514 104.060541 0zM1463.212973-17.297297s51.753514 134.503784 114.854054 297.79027l114.577297 296.96h73.894054l3.044325-7.749189c9.40973-22.140541 229.154595-587.001081 229.154594-587.001081H1920.691892l-31.55027 83.027027-31.550271 83.027027H1602.421622v-2.767568c0-1.383784-14.114595-39.299459-30.166487-83.027027l-27.675676-80.536216h-41.513513a193.72973 193.72973 0 0 0-39.852973 0.276757z m2063.221622 258.214054a135.334054 135.334054 0 0 1-35.148109 91.606486 98.802162 98.802162 0 0 1-53.69081 25.738379 163.286486 163.286486 0 0 1-41.790271 0 110.702703 110.702703 0 0 1-55.904864-29.612973 154.707027 154.707027 0 0 1-37.638919-59.77946 225.28 225.28 0 0 1-7.472433-29.059459v-3.597838h233.029189z m-131.182703-267.623784a186.534054 186.534054 0 0 0-83.027027 26.015135 193.72973 193.72973 0 0 0-87.731892 149.448649 342.624865 342.624865 0 0 0 0 76.938378 246.59027 246.59027 0 0 0 49.816216 122.88 256.553514 256.553514 0 0 0 30.166487 29.88973 184.596757 184.596757 0 0 0 76.661621 35.978378 244.376216 244.376216 0 0 0 62.270271 3.597838 166.054054 166.054054 0 0 0 110.702702-55.351351 212.825946 212.825946 0 0 0 44.557838-132.843244v-52.03027h-304.432432v-6.642162a160.518919 160.518919 0 0 1 13.837838-63.377297 143.913514 143.913514 0 0 1 30.996756-44.834595 140.038919 140.038919 0 0 1 76.938379-32.38054 260.704865 260.704865 0 0 1 50.369729 2.214054 213.932973 213.932973 0 0 1 94.927568 38.745946c3.044324 2.490811 6.365405 4.428108 6.642162 4.981621a115.130811 115.130811 0 0 0 0-31.273513v-31.827027l-6.642162-3.044325a252.402162 252.402162 0 0 0-101.846487-35.148108 625.747027 625.747027 0 0 0-64.207567-1.937297z m-797.05946 0c-78.598919 4.981622-123.987027 49.262703-136.441081 131.736216-3.044324 21.863784-3.044324 22.417297-3.597837 166.054054v138.378379h68.082162v-276.756757a127.861622 127.861622 0 0 1 30.166486-74.170811 89.115676 89.115676 0 0 1 48.709189-25.461622 166.054054 166.054054 0 0 1 46.771892 0 103.23027 103.23027 0 0 1 53.137298 27.675676 135.610811 135.610811 0 0 1 35.424864 67.528649l2.214054 9.132973v268.454054h70.84973V-17.297297H2745.427027v33.210811a231.922162 231.922162 0 0 1 0 33.21081 27.675676 27.675676 0 0 1-3.874595-5.811892 141.145946 141.145946 0 0 0-55.351351-53.69081 158.028108 158.028108 0 0 0-89.115676-16.605406zM619.104865-72.648649l315.502703 55.351352h2.767567l-162.179459 190.962162c-89.115676 104.890811-162.179459 191.238919-162.17946 191.515676s167.714595 456.648649 168.544865 458.309189 114.577297-193.72973 276.756757-470.486487l276.756757-476.021621 1.937297-3.874595H306.36973z"  horiz-adv-x="3598" />
      
      <glyph glyph-name="aliyun_h" unicode="&#62104;" d="M668.359229 406.81847h317.192527v-38.784679H668.359229zM1378.509701 895.98647H944.061169l39.085336-157.844622 371.911995-80.275265a75.164106 75.164106 0 0 0 60.131285-72.458198v-398.670417a77.870014 77.870014 0 0 0-60.131285-72.458198L983.146505 34.305161l-39.085336-157.844622h434.448532A275.100627 275.100627 0 0 1 1653.610329 150.659197V625.395689a276.60391 276.60391 0 0 1-275.701941 270.590781z m-1082.363124-781.7067a75.164106 75.164106 0 0 0-60.131285 72.458198V585.709042a77.870014 77.870014 0 0 0 60.131285 72.458198l372.212652 80.275265L707.444564 895.98647H275.70194A272.996032 272.996032 0 0 1 0 625.395689v-472.030584a276.60391 276.60391 0 0 1 275.70194-274.198658h431.742624l-39.085335 157.844622L296.447233 114.27977z m3180.644303-7.817067a48.706341 48.706341 0 0 1-49.307653 25.856452 70.654259 70.654259 0 0 1-30.065643-7.817067 161.452499 161.452499 0 0 1-23.451201-20.745293 104.027122 104.027122 0 0 1-12.928226 18.039385 47.503715 47.503715 0 0 1-33.673519 10.222319 53.216187 53.216187 0 0 1-33.67352-10.222319 128.079636 128.079636 0 0 1-18.340041-18.039385v25.856452h-30.065643v-178.589915h30.065643v93.203491a66.745726 66.745726 0 0 0 12.928226 46.601746 53.8175 53.8175 0 0 0 30.065642 12.928226 30.065642 30.065642 0 0 0 26.157109-12.928226 63.137849 63.137849 0 0 0 5.111159-25.856453v-116.053379h30.065642v103.425809a53.516843 53.516843 0 0 0 12.928227 38.784679 43.294525 43.294525 0 0 0 30.065642 12.928226 30.065642 30.065642 0 0 0 20.745293-7.817067 31.568924 31.568924 0 0 0 7.817067-23.150544v-124.171103h30.065643v120.262569a150.328212 150.328212 0 0 1-10.823632 38.784679zM3165.010169-5.9828a49.908966 49.908966 0 0 0-80.575921-5.111159 90.196927 90.196927 0 0 0-12.928227 46.601746 92.000866 92.000866 0 0 0 12.928227 49.307653 42.993869 42.993869 0 0 0 39.085335 20.745293 48.706341 48.706341 0 0 0 44.196494-23.150544 90.196927 90.196927 0 0 0 7.817067-41.490587 76.366732 76.366732 0 0 0-10.522975-46.902402zM3126.826803 132.619811a69.150977 69.150977 0 0 1-60.131284-25.856452 105.530405 105.530405 0 0 1-23.451201-72.458198 109.438938 109.438938 0 0 1 20.745293-67.347039 78.17067 78.17067 0 0 1 57.12472-25.856452 76.667388 76.667388 0 0 1 64.941788 30.065642 117.857318 117.857318 0 0 1 20.745293 69.75229 92.301522 92.301522 0 0 1-23.451201 67.347039 66.44507 66.44507 0 0 1-56.523408 24.35317z m-171.674817-25.856452a42.693212 42.693212 0 0 0 30.065642-10.222318 72.157542 72.157542 0 0 0 12.928226-28.562361h30.065643a64.941787 64.941787 0 0 1-23.451201 49.307654 75.765419 75.765419 0 0 1-49.307654 15.634134 67.046382 67.046382 0 0 1-57.12472-25.856453 105.530405 105.530405 0 0 1-23.451201-72.458198 107.033687 107.033687 0 0 1 20.745293-64.641131 62.536536 62.536536 0 0 1 54.719469-25.856452 81.778547 81.778547 0 0 1 52.013561 15.634134 90.196927 90.196927 0 0 1 26.157109 51.712905h-30.065642a60.131285 60.131285 0 0 0-15.634134-30.065643 45.39912 45.39912 0 0 0-64.941788 7.817067 78.771983 78.771983 0 0 0-10.522975 43.895838 103.42581 103.42581 0 0 0 9.019693 42.993869 36.379427 36.379427 0 0 0 38.784679 30.065642z m-156.040684-120.262569h33.072206v-36.379428h-33.673519z m-111.84419 144.916396a70.654259 70.654259 0 0 1-30.065642-7.817067 73.360167 73.360167 0 0 1-26.157109-23.150545v25.856453h-30.065642v-177.38729h30.065642v93.203491a69.150977 69.150977 0 0 0 2.705908 25.856452 62.536536 62.536536 0 0 0 10.522975 18.039386 40.287961 40.287961 0 0 0 20.745293 15.634134 37.582053 37.582053 0 0 0 18.340042 2.705908 30.065642 30.065642 0 0 0 30.065642-15.634134 74.562793 74.562793 0 0 0 5.111159-25.856453v-111.242876h30.065643v113.948784a92.602178 92.602178 0 0 1-7.817067 41.490586 63.739162 63.739162 0 0 1-54.719469 25.555796z m-163.85775-90.196927a173.779413 173.779413 0 0 0-5.11116-41.490587 42.392556 42.392556 0 0 0-41.490586-28.56236 30.065642 30.065642 0 0 0-30.065642 15.634134 49.908966 49.908966 0 0 0-5.11116 23.150545v120.262569h-30.065642v-121.765851a69.451634 69.451634 0 0 1 7.817067-36.379428 50.510279 50.510279 0 0 1 52.013561-25.856452 77.569357 77.569357 0 0 1 41.490587 12.928226 44.196494 44.196494 0 0 1 12.928226 18.039386v-25.856453h30.065642V129.312591h-30.065642v-87.491019z m-218.57722-60.131285l-46.902402 144.916396H2224.857533l64.941788-183.701075a61.634567 61.634567 0 0 1-7.817067-18.039385c-2.705908-7.817067-5.111159-12.928226-5.11116-12.928226l-7.817067-7.817067a18.941355 18.941355 0 0 0-12.928226-2.705908h-5.111159a19.542668 19.542668 0 0 0-10.522975 2.705908v-28.56236c2.705908 0 5.111159-2.705908 7.817067-2.705908h10.522975a39.987304 39.987304 0 0 1 36.379427 15.634134 476.841088 476.841088 0 0 1 36.379427 82.680516c7.817067 18.039385 15.634134 43.895838 26.157109 75.164106 15.634134 41.490586 23.451201 67.347039 30.065643 77.569357H2351.133231l-46.902402-142.210488z m-140.40655 210.459496h30.065642v-33.673519H2164.726249z m0-67.046382h30.065642v-175.884008H2164.726249z m-72.758854 67.046382h30.065642v-243.231046h-30.065642z m-80.575922-178.589915a38.784679 38.784679 0 0 0-26.758422-35.778114 70.654259 70.654259 0 0 0-30.065642-7.817067 42.693212 42.693212 0 0 0-23.451201 7.817067 32.170237 32.170237 0 0 0-10.522975 20.745293 31.869581 31.869581 0 0 0 12.928226 25.856452 116.354036 116.354036 0 0 0 23.451202 7.817067l18.340041 2.705908c5.111159 0 10.522975 2.705908 18.340042 2.705908s10.522975 2.705908 12.928226 5.111159v-25.856452z m38.784679-46.601746c-5.111159 0-7.817067 0-7.817067 2.705908s-2.705908 5.111159-2.705908 7.817067V84.214127a39.085335 39.085335 0 0 1-18.340042 36.379428 102.223184 102.223184 0 0 1-52.013561 12.928226 90.196927 90.196927 0 0 1-46.902402-12.928226 50.510279 50.510279 0 0 1-20.745293-46.601746h30.065642a25.856452 25.856452 0 0 0 7.817067 20.745293 45.098464 45.098464 0 0 0 33.673519 12.928226 56.523408 56.523408 0 0 0 30.065643-7.817067 24.954483 24.954483 0 0 0 10.522975-23.150544c0-5.111159 0-7.817067-2.705908-10.222319a14.732165 14.732165 0 0 0-12.928226-7.817067l-46.902403-5.111159a98.915963 98.915963 0 0 1-41.490586-15.634134 46.000433 46.000433 0 0 1-15.333478-39.686648 43.294525 43.294525 0 0 1 15.634134-36.379427 55.621438 55.621438 0 0 1 41.490587-15.634134 106.432374 106.432374 0 0 1 39.085335 7.817067 70.954916 70.954916 0 0 1 26.157109 20.745293 23.150545 23.150545 0 0 1 5.111159-15.634134 24.954483 24.954483 0 0 1 23.451201-10.222318h10.522975a19.542668 19.542668 0 0 1 10.522975 2.705908v23.150544h-5.11116c-7.817067-5.411816-7.817067-5.411816-10.522974-5.411815z m1001.486546 310.578086l-2.705908-5.11116h356.277862a56.222751 56.222751 0 0 1 46.902402 18.039386 44.497151 44.497151 0 0 1 2.705908 43.895838c-5.111159 25.856452-25.856452 116.354036-30.065642 129.282262v3.006564H3367.351942l2.705908-5.111159c2.705908-12.928226 26.157109-106.131717 30.065642-137.099329h-286.224915c12.928226 60.131285 36.379427 162.955781 49.307654 212.263435h319.898434l-12.928226 51.712904H3036.629876l-12.928226-51.712904h88.392989c-10.522975-46.902402-41.791243-176.184664-60.131285-259.165837z m384.840222 515.024453h-364.696242l-12.928226-54.418813h390.853351zM2525.513957 559.551933v180.393854h150.328211v-63.739162h-108.837625L2555.579599 625.395689h120.262569v-64.641131h-150.328211zM2728.156386 625.395689h122.367164l-12.928226 51.712905h-109.138282V740.5471h150.328212V595.330047c0-25.856452-10.522975-36.379427-30.065642-36.379427h-120.26257V625.395689z m-247.13958-297.649859l-10.522975-51.712905h463.010892l-12.928226 51.712905h-192.420111v63.438506h176.785977l-12.928226 51.712904h-166.563659v64.641131h120.26257a75.765419 75.765419 0 0 1 85.68708 85.386425V794.965912H2470.794488v-287.126884h202.943085V445.001835h-166.563658L2495.448314 393.890243h176.785977v-67.347038zM1895.939406 794.965912v-520.135612h52.013561V740.847756h62.536536l-39.085335-162.955782A132.890139 132.890139 0 0 0 2014.398037 475.067478a85.386424 85.386424 0 0 0-44.196494-82.680517v-54.418812a129.883575 129.883575 0 0 1 98.915963 134.694077 204.446368 204.446368 0 0 1-39.085335 120.26257l46.902402 201.74046h-180.995167z m262.773714-367.402149V642.232449h46.902402v-186.406982c0-20.745293-7.817067-28.56236-26.157109-28.562361z m80.575922-36.078771a78.17067 78.17067 0 0 1 18.340041 60.131285V694.24601h-150.328211v-320.800403h83.281829a60.131285 60.131285 0 0 1 49.307653 18.039385z m-10.522975-116.654692a120.262569 120.262569 0 0 1 127.478323 124.171103V740.847756h12.928226l12.928227 51.712905H2104.594964l12.928226-51.712905h187.308952v-336.434538A79.974609 79.974609 0 0 0 2215.537184 324.739266l13.228883-49.307653z"  horiz-adv-x="3489" />
      
      <glyph glyph-name="openstack_h" unicode="&#62105;" d="M0 492.602111h217.204223v-217.204222H0zM959.732373 895.981382H94.949275A93.087524 93.087524 0 0 1 0 802.893858v-217.204222h210.067513V633.784856a57.403973 57.403973 0 0 0 57.714265 56.78339h517.876925a57.403973 57.403973 0 0 0 57.714265-56.78339V585.689636H1054.99194V802.893858a94.949275 94.949275 0 0 1-95.259567 93.087524z m-116.669696-758.042737a57.403973 57.403973 0 0 0-57.714265-56.78339H267.471486a57.403973 57.403973 0 0 0-57.714265 56.78339V182.310364H0v-217.204222a93.087524 93.087524 0 0 1 94.949275-93.087524h865.09339A93.087524 93.087524 0 0 1 1054.99194-34.893858v217.204222h-211.929263zM837.787717 492.602111h217.204223v-217.204222h-217.204223zM4018.278123 573.277966l-117.910864-165.385501V709.806334h-73.849435v-513.222549h73.849435V306.427063l205.413137 267.781778h-87.502273z m-12.101378-181.210381l-51.818722-62.058349 69.505352-134.97691h85.33023zM3780.594645 244.368714l-40.337927 53.37018a93.087524 93.087524 0 0 0-70.436227-38.476176c-50.267263 0-85.33023 49.026096-85.33023 121.944656v3.723501c0 71.05681 35.373259 121.324073 83.46848 121.324073a93.087524 93.087524 0 0 0 69.815643-37.545301l41.268802 58.955432a140.562161 140.562161 0 0 1-110.774153 50.887846c-90.915482 0-157.938499-80.986146-157.9385-193.62205v-7.13671c0-112.325612 65.161267-191.450008 155.145874-191.450008a143.975371 143.975371 0 0 1 115.118238 58.024557z m-347.837048 293.225701a130.012242 130.012242 0 0 1-101.465402 38.476176 229.615893 229.615893 0 0 1-113.877071-31.029174l21.099839-63.9201a186.175048 186.175048 0 0 0 83.46848 22.961589 68.264184 68.264184 0 0 0 74.470019-76.952353v-15.514588a217.204223 217.204223 0 0 1-79.434687 14.894004c-73.228852 0-124.116699-39.717344-124.116699-120.703489v-3.723501a105.809486 105.809486 0 0 1 105.809486-115.42853 107.671236 107.671236 0 0 1 95.88015 53.059889v-45.612887h72.297977V430.543762a162.592875 162.592875 0 0 1-34.132092 108.29182z m-35.993843-217.204223a71.987685 71.987685 0 0 0-75.090603-73.228852 55.542223 55.542223 0 0 0-56.473098 59.886307 59.886307 59.886307 0 0 0 67.023018 63.609808 158.248791 158.248791 0 0 0 62.058349-13.342545v-37.545302z m-246.061355-116.049113v68.884767a78.503812 78.503812 0 0 0-39.717344-10.549919c-23.892465 0-37.23501 12.101378-37.23501 41.268802v200.138177h77.572937V573.277966h-77.572937V675.053659h-73.849435v-102.085985h-37.855593l11.791086-68.884768h25.754215v-217.204223c0-73.228852 38.786468-96.811025 89.364023-96.811025a115.42853 115.42853 0 0 1 61.748058 17.066046z m-227.754143 99.293359c0 58.955432-40.648219 85.640522-93.087524 112.325612-40.648219 20.168964-67.953893 31.029175-67.953892 57.714265a38.786468 38.786468 0 0 0 43.751136 36.924718 144.285662 144.285662 0 0 0 81.917021-33.511509l31.029175 58.955432a184.003006 184.003006 0 0 1-112.015321 40.648219 107.050653 107.050653 0 0 1-113.877071-110.463862c0-62.058349 42.820261-87.191981 93.087524-111.705029 41.268802-19.238088 67.953893-31.029175 67.953893-58.64514a42.509969 42.509969 0 0 0-48.405513-41.268802 149.870914 149.870914 0 0 0-94.949274 44.371719l-33.511509-57.714265a194.242634 194.242634 0 0 1 128.460783-52.749597 110.15357 110.15357 0 0 1 117.600572 115.118239z m-403.379271 276.159654a106.430069 106.430069 0 0 1-93.087524-62.058349v54.921639h-74.780311v-377.004472h73.849436v228.064434c0 51.818722 26.374798 83.158188 65.161267 83.158188s62.058349-28.857132 62.058349-81.917021v-229.926185h73.849436v252.887774c-1.241167 80.986146-40.648219 131.873992-106.740361 131.873992z m-228.374725-332.632752l-38.786469 49.646679A106.119777 106.119777 0 0 0 2172.042229 257.090675c-44.992303 0-80.986146 33.8218-87.502273 97.431609h217.204223v27.926257c0 113.256488-49.336388 197.966135-143.665079 197.966135-84.709647 0-147.078288-80.986146-147.078288-193.932342v-5.895543c0-118.221156 68.884768-192.380883 157.938499-192.380883a155.145873 155.145873 0 0 1 122.254949 58.955432z m-131.253409 265.299443c42.820261 0 67.953893-43.440845 71.677393-102.706568h-146.147413c4.964668 63.609808 34.132092 102.706568 74.47002 102.706568z m-186.175049-132.804867v9.619044c0 126.909325-65.161267 190.519133-134.046034 190.519132A117.29028 117.29028 0 0 1 1737.633783 512.460783v62.05835h-74.470019V89.22284H1737.633783v164.144335a116.979989 116.979989 0 0 1 101.15511-64.230392c69.19506 0 133.735743 64.230392 133.735742 190.519133z m-237.062894 1.551458v6.826419c0 73.849436 37.855593 120.70349 81.917021 120.703489s80.055271-45.923179 80.055271-121.324073v-6.826418c0-75.090603-35.373259-120.70349-80.055271-120.70349s-83.158188 46.543762-83.158188 121.324073z m-113.877071 0v6.826419c0 111.705029-67.023017 192.691175-158.559083 192.691175S1303.225337 497.566779 1303.225337 386.792626v-6.826419c0-111.705029 67.023017-192.380883 158.559083-192.380883s159.80025 82.537605 159.80025 193.311759z m-244.509897 1.551459v4.033793c0 70.125935 33.201217 121.944657 84.709647 121.944656s86.261106-52.749597 86.261106-124.116699v-4.033792c0-70.125935-33.201217-124.116699-84.709647-124.116699s-87.502273 55.852514-87.502273 125.978449z m2816.207895-130.322534a13.963129 13.963129 0 0 1-3.7235 10.860211 16.135171 16.135171 0 0 1-11.480795 4.654377h-15.824879v-45.923179h8.377877v14.894004h5.895543l8.067586-14.894004h9.929335l-8.688168 17.066046a14.27342 14.27342 0 0 1 6.205835 13.032254z m-2.172042-3.723501a9.619044 9.619044 0 0 0-10.549919-10.549919h-10.54992v20.479255h9.929336c5.895543 0.310292 9.929336-2.792626 9.929336-10.239627z m27.615966-4.344084a43.130553 43.130553 0 1 1-42.820261-46.854054A44.992303 44.992303 0 0 1 4219.967759 244.368714z m-43.440845-35.683551a35.373259 35.373259 0 1 0 32.580634 35.683551 34.132092 34.132092 0 0 0-32.580634-36.614426z"  horiz-adv-x="4220" />
      
      <glyph glyph-name="Windows" unicode="&#62101;" d="M80.842105 701.978947V437.894737l269.473684 10.778947V761.263158L80.842105 701.978947zM458.105263 793.6V464.842105l485.052632 18.863158V896L458.105263 793.6zM80.842105 330.105263v-264.08421L350.315789 6.736842V319.326316L80.842105 330.105263zM458.105263 303.157895v-328.757895L943.157895-128V284.294737L458.105263 303.157895z"  horiz-adv-x="1024" />
      
      <glyph glyph-name="aliyun1" unicode="&#62100;" d="M312.304985 115.237537c-33.032258 9.008798-60.058651 36.035191-60.058651 72.070381V586.697947c3.002933 36.035191 27.026393 66.064516 60.058651 72.070381l372.363637 81.079179L720.703812 896H291.284457C138.134897 896 15.014663 775.882698 15.014663 625.73607v-471.46041c0-150.146628 126.123167-273.266862 276.269794-273.266862H720.703812l-39.038123 159.155425L312.304985 115.237537zM1390.357771 896H957.935484l39.038123-159.155425L1369.337243 655.765396c33.032258-9.008798 60.058651-36.035191 60.058651-72.070381v-399.39003c-3.002933-36.035191-27.026393-66.064516-60.058651-72.070381l-372.363636-81.079179-39.038123-159.155425h432.422287c150.146628 0 276.269795 120.117302 276.269795 273.266862V625.73607c-3.002933 150.146628-123.120235 270.26393-276.269795 270.26393zM681.665689 406.521994h318.310851v-39.038123H681.665689v39.038123z"  horiz-adv-x="1681" />
      
      <glyph glyph-name="AZURE" unicode="&#62096;" d="M619.104865-72.648649l315.502703 55.351352h2.767567L774.918919 173.664865c-89.115676 104.614054-162.179459 190.962162-162.17946 191.515676s167.437838 456.648649 168.544865 458.309189 114.577297-193.72973 276.756757-470.486487c151.939459-259.874595 276.756757-474.084324 276.756757-476.021621l2.214054-3.874595H306.36973l312.735135 55.351351zM0-14.806486l169.928649 291.424864 170.205405 290.871352 199.541622 164.116756L737.003243 896s0-3.597838-3.044324-8.025946l-215.04-455.541622-211.995676-447.238918H153.6c-84.410811-0.553514-153.6-0.553514-153.6 0z"  horiz-adv-x="1337" />
      
      <glyph glyph-name="OpenStack" unicode="&#62097;" d="M837.818182 492.606061h217.212121v-217.212122h-217.212121v217.212122z m6.20606-353.745455c0-31.030303-24.824242-55.854545-58.957575-55.854545H266.860606c-31.030303 0-58.957576 24.824242-58.957576 55.854545V182.30303H0v-217.212121c0-52.751515 43.442424-93.090909 96.193939-93.090909H961.939394c52.751515 0 96.193939 43.442424 96.193939 93.090909v217.212121h-211.00606v-43.442424zM958.836364 896H96.193939C43.442424 896 0 852.557576 0 802.909091v-217.212121h211.006061V635.345455c0 31.030303 24.824242 55.854545 58.957575 55.854545h518.206061c31.030303 0 58.957576-24.824242 58.957576-55.854545V585.69697H1055.030303V802.909091c0 52.751515-43.442424 93.090909-96.193939 93.090909zM0 492.606061h217.212121v-217.212122H0v217.212122z"  horiz-adv-x="1058" />
      
      <glyph glyph-name="aliyun" unicode="&#62098;" d="M297.74403 110.860166a74.888965 74.888965 0 0 0-60.394327 72.775163V584.049714a78.210653 78.210653 0 0 0 60.394327 72.775164l373.53891 80.626426L709.633337 895.986411H276.907987A274.190243 274.190243 0 0 1 0 624.211942v-474.095464a278.115874 278.115874 0 0 1 276.907987-275.700101H709.633337l-39.256312 158.535107L297.74403 110.860166z m1087.097879 785.126245H948.190927l39.256313-158.535107 373.53891-80.626426a75.190937 75.190937 0 0 0 60.394326-72.775164v-400.112413a77.908681 77.908681 0 0 0-60.394326-72.775164L987.44724 30.535711l-39.256313-158.535107h436.34901a276.304044 276.304044 0 0 1 276.907987 275.398129V624.211942a277.813902 277.813902 0 0 1-276.907987 271.774469zM671.28294 404.678564h318.580073v-38.95434H671.28294z"  horiz-adv-x="1661" />
      
      <glyph glyph-name="OpenStack1" unicode="&#62099;" d="M837.787717 492.602111h217.204223v-217.204222h-217.204223z m5.27496-354.663466a57.403973 57.403973 0 0 0-57.714265-56.78339H267.471486a57.403973 57.403973 0 0 0-57.714265 56.78339V182.310364H0v-217.204222a93.087524 93.087524 0 0 1 94.949275-93.087524h865.09339A93.087524 93.087524 0 0 1 1054.99194-34.893858v217.204222h-211.929263zM959.732373 895.981382H94.949275A93.087524 93.087524 0 0 1 0 802.893858v-217.204222h210.067513V633.784856a57.714265 57.714265 0 0 0 57.714265 57.093682h517.566634a57.403973 57.403973 0 0 0 57.714265-57.093682V585.689636H1054.99194V802.893858a94.949275 94.949275 0 0 1-95.259567 93.087524zM0 492.602111h217.204223v-217.204222H0z"  horiz-adv-x="1055" />
      
      <glyph glyph-name="windows1" unicode="&#62080;" d="M1367.958974 536.287179v-157.538461h189.046154v157.538461h60.389744V160.820513h-60.389744v165.415384h-189.046154V160.820513h-60.389743V536.287179h60.389743zM1722.420513 431.261538l70.892308-194.297435 68.266666 194.297435h65.641026L1782.810256 55.794872h-63.015384l47.261538 110.276923-107.651282 265.189743h63.015385zM2195.035897 397.128205c21.005128-26.25641 31.507692-60.389744 31.507693-102.4 0-39.384615-10.502564-73.517949-31.507693-99.774359-21.005128-28.882051-52.512821-42.010256-91.897435-42.010256-31.507692 0-57.764103 15.753846-81.394872 44.635897V55.794872h-60.389744V431.261538h55.138462v-28.882051c18.379487 23.630769 47.261538 36.758974 81.394871 36.758975 42.010256 0 73.517949-13.128205 97.148718-42.010257z m-157.538461-34.133333c-10.502564-15.753846-15.753846-36.758974-15.753846-65.641026v-5.251282c0-28.882051 7.876923-52.512821 21.005128-68.266667 13.128205-15.753846 28.882051-23.630769 47.261538-23.630769 26.25641 0 47.261538 7.876923 57.764103 26.25641 10.502564 15.753846 15.753846 39.384615 15.753846 68.266667s-5.251282 52.512821-15.753846 68.266667c-13.128205 18.379487-31.507692 28.882051-57.764103 28.882051-21.005128 0-39.384615-10.502564-52.51282-28.882051zM2496.984615 394.502564c21.005128-26.25641 31.507692-65.641026 31.507693-115.528205h-202.174359c2.625641-26.25641 7.876923-44.635897 21.005128-57.764103 10.502564-13.128205 28.882051-21.005128 49.887179-21.005128 18.379487 0 34.133333 5.251282 44.635898 13.128205 7.876923 7.876923 15.753846 18.379487 23.630769 34.133334h60.389744c-5.251282-26.25641-18.379487-47.261538-36.758975-63.015385-23.630769-21.005128-55.138462-31.507692-89.271795-31.507692-39.384615 0-73.517949 13.128205-97.148718 36.758974-26.25641 26.25641-36.758974 60.389744-36.758974 105.025641 0 39.384615 10.502564 73.517949 36.758974 102.4 23.630769 28.882051 55.138462 42.010256 94.523077 42.010257 42.010256 0 76.14359-13.128205 99.774359-44.635898z m-147.035897-21.005128c-10.502564-10.502564-18.379487-26.25641-21.005128-49.88718H2468.102564c-5.251282 44.635897-28.882051 65.641026-70.892308 65.641026-21.005128 2.625641-36.758974-2.625641-47.261538-15.753846zM2738.54359 433.887179v-60.389743c-13.128205 5.251282-26.25641 5.251282-39.384616 5.251282-15.753846 0-28.882051-5.251282-42.010256-18.379487-15.753846-13.128205-21.005128-31.507692-21.005128-55.138462V160.820513h-60.389744V431.261538h60.389744v-39.384615c7.876923 13.128205 15.753846 23.630769 26.25641 31.507692 13.128205 10.502564 26.25641 15.753846 42.010256 15.753847 13.128205 0 26.25641-2.625641 34.133334-5.251283zM3032.615385 320.984615v-49.887179h-265.189744v49.887179h265.189744zM3129.764103 536.287179l102.4-304.574358h2.625641l102.4 304.574358h65.641025L3268.923077 160.820513h-73.517949l-133.907692 375.466666h68.266667zM26.25641 680.697436V423.384615l262.564103 10.502564V738.461538L26.25641 680.697436zM393.846154 769.969231V449.641026l472.615384 18.379487V869.74359L393.846154 769.969231zM26.25641 318.358974v-257.31282L288.820513 3.282051V307.85641zM393.846154 292.102564v-320.328205L866.461538-128V273.723077L393.846154 292.102564z"  horiz-adv-x="3413" />
      
      <glyph glyph-name="bianzu3" unicode="&#61748;" d="M694.659459 354.940541c109.318919 0 197.881081-89.945946 197.881082-199.264865 0-42.897297-13.837838-84.410811-38.745946-117.621622l125.924324-128.691892L940.972973-128l-124.540541 127.308108c-34.594595-27.675676-76.108108-44.281081-123.156756-44.281081-109.318919 0-197.881081 89.945946-197.881081 200.648649 1.383784 109.318919 89.945946 199.264865 199.264864 199.264865z m0-66.421622c-71.956757 0-131.459459-59.502703-131.459459-131.45946s59.502703-131.459459 131.459459-131.459459 131.459459 59.502703 131.45946 131.459459-59.502703 131.459459-131.45946 131.45946zM896.691892 594.335135H570.118919V896H89.945946c-23.524324 0-41.513514-17.989189-41.513514-41.513514v-823.351351c0-23.524324 17.989189-41.513514 41.513514-41.513513h375.005405c-31.827027 45.664865-51.2 101.016216-51.2 160.518919 0 44.281081 11.07027 85.794595 29.05946 123.156756v124.540541h87.178378v-22.140541c45.664865 31.827027 101.016216 51.2 160.518919 51.2 81.643243 0 153.6-34.594595 204.8-89.945946l1.383784 257.383784zM244.92973 105.859459H157.751351V486.4h87.178379v-380.540541z m146.681081 0H304.432432V749.318919h87.178379v-643.45946zM918.832432 662.140541H654.52973V896z"  horiz-adv-x="1024" />
      
      <glyph glyph-name="bianzu1" unicode="&#61743;" d="M512 896C229.668571 896 0 666.331429 0 384s229.668571-512 512-512 512 229.668571 512 512S794.331429 896 512 896z m-42.422857-760.685714H219.428571V676.571429h541.257143v-250.148572h-40.96V634.148571H260.388571v-457.874285H468.114286V135.314286zM317.44 427.885714v43.885715h207.725714v-43.885715H317.44z m124.342857-43.885714v-43.885714h-124.342857v43.885714h124.342857z m-124.342857 130.194286v43.885714h248.685714v-43.885714h-248.685714zM542.72 91.428571h-43.885714v83.382858h43.885714V91.428571z m43.885714 0v124.342858h43.885715V91.428571h-43.885715z m-5.851428 212.114286l-92.16-87.771428-30.72 29.257142 122.88 117.028572 92.16-87.771429 92.16 87.771429 30.72-29.257143-122.88-117.028571-92.16 87.771428zM716.8 91.428571h-43.885714v81.92h43.885714V91.428571z m87.771429 0h-43.885715V256.731429h43.885715V91.428571z"  horiz-adv-x="1024" />
      
      <glyph glyph-name="bianzu" unicode="&#61741;" d="M642.654815 89.505185h76.250074l0.379259-216.955259-76.648296-0.549926V89.505185z m152.538074-72.704l76.269037 0.265482v-144.877037h-76.269037v144.611555z m152.538074 145.142519H1024v-289.754074h-76.269037V161.943704z m-457.633185-144.877037h76.269037V-128l-76.269037 0.18963v144.877037z m-18.849185 72.666074L417.185185 140.894815l215.552 204.989629 161.792-153.865481L956.491852 346.074074l53.930667-51.294815L794.605037 89.505185l-161.792 153.884445-161.564444-153.656889zM948.148148 896L0 895.905185V-52.148148h437.608296v72.855704l-364.657777-0.037926-0.056889 802.247111h802.322963v-365.037037H948.148148V896zM170.666667 611.65037h436.148148V687.407407H170.666667v-75.757037z m0-151.419259l363.463111-0.094815V535.893333H170.666667v-75.662222zM170.666667 308.148148h218.074074v75.719111L170.666667 383.905185V308.148148z"  horiz-adv-x="1024" />
      
      <glyph glyph-name="kongshuju" unicode="&#61718;" d="M558.08 491.52c-76.8 0-138.24-62.72-138.24-138.24s61.44-138.24 138.24-138.24c76.8 0 138.24 62.72 138.24 138.24s-61.44 138.24-138.24 138.24zM512 896C229.12 896 0 666.88 0 384s229.12-512 512-512 512 229.12 512 512S794.88 896 512 896zM204.8 665.6h573.44v-92.16H204.8V665.6z m61.44-348.16H204.8V409.6h61.44v-92.16z m71.68 122.88H204.8v92.16h133.12v-92.16z m446.72-348.16l-113.92 115.2c-30.72-25.6-69.12-39.68-111.36-39.68-99.84 0-180.48 81.92-180.48 183.04 0 99.84 80.64 181.76 180.48 181.76s180.48-81.92 180.48-181.76c0-38.4-11.52-76.8-35.84-107.52l115.2-117.76-34.56-33.28z"  horiz-adv-x="1024" />
      
      <glyph glyph-name="tuozhuai" unicode="&#61635;" d="M536.32 560a27.52 27.52 0 0 0 26.88 27.52l151.04-5.12a25.6 25.6 0 0 0 18.56-8.96 24.32 24.32 0 0 0 7.04-19.2l-3.84-152.96a26.88 26.88 0 0 0-26.24-27.52 26.24 26.24 0 0 0-27.52 25.6l3.2 87.68-225.92-211.2a26.88 26.88 0 0 0-37.76 0 27.52 27.52 0 0 0 0 38.4l225.92 214.4H560.64a26.24 26.24 0 0 0-25.6 27.52z m326.4-132.48h-53.76V547.84h53.76z m-51.84-60.16h51.84v-60.16a64 64 0 0 0-59.52-60.16h-59.52V300.8h64v64z m-67.2 307.2v53.12h59.52a60.16 60.16 0 0 0 59.52-60.16v-60.16h-53.12v64z m-303.36-64h-52.48v56.32A59.52 59.52 0 0 0 448 727.04h57.6v-52.48h-64v-64z m243.84 67.84H565.76v49.28h118.4z m-37.12-428.16v-192a26.88 26.88 0 0 0-26.88-26.88H192a26.88 26.88 0 0 0-26.88 26.88V477.44a26.88 26.88 0 0 0 26.24 27.52h188.8v42.24h53.76v-40.32H448a26.88 26.88 0 1 0 0-53.76L215.04 448v-370.56h378.88V302.08a26.88 26.88 0 0 0 53.76 0h37.12v-52.48z"  horiz-adv-x="1024" />
      
      <glyph glyph-name="cai" unicode="&#61745;" d="M139.124106 295.14325299999996L377.029494 295.14325299999996c-92.185562-340.464205 63.516616-357.853247 63.516616-357.853247 65.993017 0 52.312436 52.18247599 57.3031 60.881602 0 166.502152 176.849824 296.971645 176.849824 296.971645l-1e-8 472.171899c0 46.607504-63.516616 63.393819-88.43309799 63.393819l-357.452111 0c-33.641191 0-61.036122-88.224344-61.036122-88.224344-88.43412199-300.70569-88.434122-390.177444-88.43412199-390.177444C79.342558 290.17919500000005 139.124106 295.14325299999996 139.124106 295.14325299999996L139.124106 295.14325299999996 139.124106 295.14325299999996zM139.124106 295.14325299999996M772.328585 295.29981899999996L914.785088 295.29981899999996c29.420053 0 29.873378 28.89612 29.873378 28.89612l-29.420053 476.202703c0 30.30930601-30.36149501 30.309306-30.36149499 30.309306L761.57977699 830.707948c-25.68600901 0-25.458835-20.049638-25.458835-20.049638L736.12094199 331.41127100000006C736.120942 294.83728399999995 772.328585 295.29981899999996 772.328585 295.29981899999996L772.328585 295.29981899999996 772.328585 295.29981899999996zM772.328585 295.29981899999996"  horiz-adv-x="1024" />
      
      <glyph glyph-name="dianzan" unicode="&#58892;" d="M884.876 472.857h-237.905c92.186 340.464-63.517 357.853-63.517 357.853-65.993 0-52.312-52.182-57.303-60.882 0-166.502-176.85-296.972-176.85-296.972v-472.172c0-46.608 63.517-63.394 88.433-63.394h357.452c33.641 0 61.036 88.224 61.036 88.224 88.434 300.706 88.434 390.177 88.434 390.177 0.001 62.128-59.781 57.164-59.781 57.164v0 0zM251.671 472.7h-142.457c-29.42 0-29.873-28.896-29.873-28.896l29.42-476.203c0-30.309 30.361-30.309 30.361-30.309h123.297c25.686 0 25.459 20.050 25.459 20.050l-0 479.247c0 36.574-36.208 36.111-36.208 36.111v0 0zM251.671 472.7z"  horiz-adv-x="1024" />
      
      <glyph glyph-name="paiban" unicode="&#61549;" d="M412.16 819.2H58.88v-353.92h353.28z m-58.24-58.24v-237.44H116.48V760.96zM965.12 265.6H611.84v-353.28h353.28z m-57.6-57.6v-237.44h-237.44v237.44zM837.12 690.56H483.84v-296.32H188.16v-353.28h353.28V337.28h295.68V690.56z"  horiz-adv-x="1024" />
      
      <glyph glyph-name="shoucang" unicode="&#61550;" d="M512 819.2a64 64 0 0 1-58.88-38.4L350.08 563.2l-229.12-34.56a64 64 0 0 1-53.76-46.72 70.4 70.4 0 0 1 16.64-70.4l166.4-168.96-39.04-238.72A69.12 69.12 0 0 1 237.44-64a64 64 0 0 1 38.4-13.44 60.16 60.16 0 0 1 30.72 8.32L512 44.16l205.44-112.64a64 64 0 0 1 30.72-7.68 58.88 58.88 0 0 1 38.4 12.8 71.04 71.04 0 0 1 26.88 67.2l-39.68 238.72 166.4 168.96a71.68 71.68 0 0 1 19.84 70.4 64 64 0 0 1-53.12 47.36l-230.4 35.2-105.6 216.96A64 64 0 0 1 512 819.2z m0-69.12l117.76-249.6L896 460.8l-192-192 44.8-274.56L512 121.6l-236.16-128L320 266.24l-192 192 263.68 39.68z"  horiz-adv-x="1024" />
      
      <glyph glyph-name="shezhi" unicode="&#61551;" d="M512 256a115.2 115.2 0 1 0 112 115.2A113.92 113.92 0 0 0 512 256z m0 307.2a192 192 0 1 1 186.88-192A192 192 0 0 1 512 563.2z m365.44-270.72A147.84 147.84 0 0 1 768 216.96a154.88 154.88 0 0 1-10.24-132.48 359.04 359.04 0 0 0-129.28-78.08 147.2 147.2 0 0 1-233.6 0 370.56 370.56 0 0 0-132.48 78.08 155.52 155.52 0 0 1-10.24 132.48 147.2 147.2 0 0 1-106.88 75.52 403.84 403.84 0 0 0 0 155.52 147.84 147.84 0 0 1 106.88 76.8 155.52 155.52 0 0 1 10.24 132.48A349.44 349.44 0 0 0 394.88 736 145.92 145.92 0 0 1 512 677.76a147.2 147.2 0 0 1 116.48 58.24 365.44 365.44 0 0 0 131.84-78.72A155.52 155.52 0 0 1 768 524.8 150.4 150.4 0 0 1 877.44 448a403.84 403.84 0 0 0 0-155.52z m64 204.8a37.76 37.76 0 0 1-39.04 27.52 73.6 73.6 0 0 0-69.12 37.76 77.44 77.44 0 0 0 0 81.28 39.68 39.68 0 0 1-1.28 48 448 448 0 0 1-212.48 128 36.48 36.48 0 0 1-42.24-20.48A74.24 74.24 0 0 0 448 797.44a36.48 36.48 0 0 1-42.88 20.48A448 448 0 0 1 192 691.84a39.68 39.68 0 0 1-4.48-48A80.64 80.64 0 0 0 192 562.56a73.6 73.6 0 0 0-69.12-37.76 36.48 36.48 0 0 1-38.4-27.52A448 448 0 0 1 64 371.2a464.64 464.64 0 0 1 17.28-128 36.48 36.48 0 0 1 37.76-27.52 77.44 77.44 0 0 0 69.76-38.4 78.72 78.72 0 0 0 0-81.28 39.04 39.04 0 0 1 4.48-48 439.04 439.04 0 0 1 211.84-128 37.76 37.76 0 0 1 42.88 24.32 73.6 73.6 0 0 0 64 42.88 72.32 72.32 0 0 0 64-42.88 37.12 37.12 0 0 1 42.88-19.84 443.52 443.52 0 0 1 211.84 128 38.4 38.4 0 0 1 3.84 48 80.64 80.64 0 0 0 0 80.64 73.6 73.6 0 0 0 69.76 38.4 38.4 38.4 0 0 1 38.4 27.52 467.84 467.84 0 0 1 17.28 128 465.28 465.28 0 0 1-16.64 122.24z"  horiz-adv-x="1024" />
      
      <glyph glyph-name="fenxiang" unicode="&#61552;" d="M816.64 448a37.12 37.12 0 0 0-19.2 5.76 35.84 35.84 0 0 0-13.44 51.2L896 704l-195.84 113.92a36.48 36.48 0 0 0-13.44 51.2 36.48 36.48 0 0 0 51.84 13.44l229.76-133.12a36.48 36.48 0 0 0 13.44-51.84l-133.12-229.76a33.28 33.28 0 0 0-32-19.84z m-437.76-339.84a38.4 38.4 0 0 0-38.4 37.76 610.56 610.56 0 0 0 609.28 609.28 38.4 38.4 0 0 0 37.76-38.4 37.76 37.76 0 0 0-37.76-37.76 535.04 535.04 0 0 1-533.12-533.12 38.4 38.4 0 0 0-37.76-37.76z m465.92-228.48h-704a107.52 107.52 0 0 0-104.32 110.08V682.88A107.52 107.52 0 0 0 140.8 792.96h420.48a38.4 38.4 0 1 0 0-76.16H140.8a32 32 0 0 1-28.16-33.92v-691.2a32 32 0 0 1 28.16-33.92h704a32 32 0 0 1 28.8 33.92v384a38.4 38.4 0 0 0 76.16 0v-384a108.16 108.16 0 0 0-104.96-112z"  horiz-adv-x="1024" />
      
      <glyph glyph-name="zhiding" unicode="&#61553;" d="M793.6 672H230.4a23.68 23.68 0 1 1 0-46.72h563.2a23.68 23.68 0 1 1 0 46.72zM247.04 296.32a26.24 26.24 0 0 0 0 36.48L512 597.12l263.68-264.32a26.24 26.24 0 0 0 0-36.48 23.04 23.04 0 0 0-32.64 0L535.68 503.04v-512a23.68 23.68 0 0 0-47.36 0v512L280.96 295.68a23.04 23.04 0 0 0-33.28 0z"  horiz-adv-x="1024" />
      
      <glyph glyph-name="quxiaozhiding" unicode="&#61554;" d="M789.12 717.44h-563.2a23.68 23.68 0 0 1 0-46.72h563.2a24.32 24.32 0 0 1 23.68 23.68 23.68 23.68 0 0 1-23.68 23.04zM242.56 342.4a26.24 26.24 0 0 0 0 36.48L507.52 640l264.32-263.68a26.88 26.88 0 0 0 0-36.48 23.04 23.04 0 0 0-32.64 0L531.2 548.48v-512a24.32 24.32 0 0 0-23.68-23.68 23.68 23.68 0 0 0-23.04 23.68v512L276.48 341.12a23.04 23.04 0 0 0-32.64 0zM816 166.4L234.88 572.8a25.6 25.6 0 0 1-37.12 0 26.24 26.24 0 0 1 10.24-35.84L789.12 128a26.24 26.24 0 0 1 37.12 0 26.88 26.88 0 0 1-10.24 38.4z"  horiz-adv-x="1024" />
      
      <glyph glyph-name="erji-gaojingbaobiao" unicode="&#61532;" d="M915.2 89.6L832 236.8V512c0 96-44.8 185.6-115.2 249.6-32 25.6-70.4 44.8-108.8 57.6C601.6 864 563.2 896 512 896s-89.6-32-102.4-76.8c-70.4-25.6-134.4-76.8-172.8-140.8-12.8-12.8-6.4-32 6.4-44.8 12.8-6.4 32-6.4 44.8 12.8 38.4 57.6 89.6 96 160 115.2 12.8 6.4 25.6 12.8 25.6 32C467.2 812.8 486.4 832 512 832c25.6 0 44.8-19.2 44.8-44.8 0-12.8 12.8-25.6 25.6-32 38.4-12.8 70.4-25.6 102.4-51.2 57.6-51.2 89.6-121.6 89.6-198.4v-275.2c0-6.4 0-12.8 6.4-12.8l57.6-108.8H185.6l57.6 108.8c0 6.4 6.4 12.8 6.4 12.8V332.8h57.6c12.8 0 25.6 6.4 32 19.2l51.2 115.2 83.2-134.4c6.4-12.8 19.2-19.2 25.6-12.8 12.8 0 19.2 6.4 25.6 19.2l153.6 288c6.4 12.8 0 32-12.8 44.8-12.8 6.4-32 0-44.8-12.8l-128-236.8L416 544c-6.4 12.8-19.2 19.2-32 12.8-12.8 0-19.2-6.4-25.6-19.2L288 396.8h-70.4c-19.2 0-32-12.8-32-32v-121.6L102.4 96c-6.4-12.8-6.4-19.2 0-32s19.2-12.8 25.6-12.8h172.8C320-51.2 403.2-128 505.6-128S691.2-51.2 704 44.8h185.6c12.8 0 19.2 6.4 25.6 12.8 6.4 12.8 6.4 19.2 0 32zM505.6-64c-64 0-121.6 44.8-134.4 108.8H640c-12.8-64-70.4-108.8-134.4-108.8z"  horiz-adv-x="1024" />
      
      <glyph glyph-name="people" unicode="&#61383;" d="M597.184 263.424l0.384 14.976c107.776 73.984 107.776 217.408 107.776 265.792 0 124.544-79.744 198.912-213.376 198.912h-7.168c-133.568 0-213.312-74.368-213.312-198.912 0-128.576 35.52-215.68 108.608-265.6v-15.104c-121.664-16-243.712-63.36-243.712-135.68 0-101.312 118.4-152.704 352-152.704 233.536 0 352 51.392 352 152.704 0 72.192-121.728 119.488-243.2 135.68z m-108.8-240.32c-137.6 0-301.76 17.536-301.76 101.184 0 26.048 88.64 74.048 222.208 87.04a27.072 27.072 0 0 1 24.704 26.88v53.76a26.88 26.88 0 0 1-13.312 23.04c-65.024 38.4-96.704 114.24-96.704 232 0 122.432 87.68 148.096 161.216 148.096h7.296c73.536 0 161.28-25.664 161.28-148.096 0-119.808-30.4-193.536-95.68-232.064a26.816 26.816 0 0 1-13.184-22.4l-1.152-53.76c-0.64-13.76 10.048-25.6 24.64-27.392 133.568-12.992 222.144-61.056 222.144-87.04 0-83.712-164.032-101.248-301.696-101.248z"  horiz-adv-x="1024" />
      
      </font>
</defs>
</svg>
